<?xml version="1.0" encoding="UTF-8" standalone="no"?>
<svg
   xmlns:dc="http://purl.org/dc/elements/1.1/"
   xmlns:cc="http://creativecommons.org/ns#"
   xmlns:rdf="http://www.w3.org/1999/02/22-rdf-syntax-ns#"
   xmlns:svg="http://www.w3.org/2000/svg"
   xmlns="http://www.w3.org/2000/svg"
   xmlns:xlink="http://www.w3.org/1999/xlink"
   xmlns:sodipodi="http://sodipodi.sourceforge.net/DTD/sodipodi-0.dtd"
   xmlns:inkscape="http://www.inkscape.org/namespaces/inkscape"
   sodipodi:docname="FaztLogo.svg"
   inkscape:version="1.0 (6e3e5246a0, 2020-05-07)"
   id="svg8"
   version="1.1"
   viewBox="0 0 132.29166 132.29167"
   height="500"
   width="500">
  <defs
     id="defs2">
    <linearGradient
       inkscape:collect="always"
       xlink:href="#linearGradient843"
       id="linearGradient1248"
       gradientUnits="userSpaceOnUse"
       gradientTransform="matrix(0.0264583,0,0,0.02645833,4.8997e-4,289.14152)"
       x1="0.00010317384"
       y1="-4702.9995"
       x2="4999.9995"
       y2="297" />
    <linearGradient
       inkscape:collect="always"
       id="linearGradient843">
      <stop
         style="stop-color:#f50022;stop-opacity:1"
         offset="0"
         id="stop839" />
      <stop
         style="stop-color:#81004f;stop-opacity:1"
         offset="1"
         id="stop841" />
    </linearGradient>
  </defs>
  <sodipodi:namedview
     inkscape:window-maximized="1"
     inkscape:window-y="27"
     inkscape:window-x="67"
     inkscape:window-height="713"
     inkscape:window-width="1299"
     units="px"
     showgrid="false"
     inkscape:document-rotation="0"
     inkscape:current-layer="layer1"
     inkscape:document-units="mm"
     inkscape:cy="199.78024"
     inkscape:cx="129.05537"
     inkscape:zoom="0.6637037"
     inkscape:pageshadow="2"
     inkscape:pageopacity="0.0"
     borderopacity="1.0"
     bordercolor="#666666"
     pagecolor="#ffffff"
     id="base" />
  <metadata
     id="metadata5">
    <rdf:RDF>
      <cc:Work
         rdf:about="">
        <dc:format>image/svg+xml</dc:format>
        <dc:type
           rdf:resource="http://purl.org/dc/dcmitype/StillImage" />
        <dc:title></dc:title>
      </cc:Work>
    </rdf:RDF>
  </metadata>
  <g
     transform="translate(0,-164.70832)"
     id="layer1"
     inkscape:groupmode="layer"
     inkscape:label="Layer 1">
    <g
       transform="translate(3.3333333e-6,3.3333333e-5)"
       style="opacity:1"
       id="g1307">
      <path
         d="m 66.020752,164.70799 a 66.145827,66.145827 0 0 0 -0.35192,0.002 66.145827,66.145827 0 0 0 -0.35192,0.004 66.145827,66.145827 0 0 0 -0.3514,0.005 66.145827,66.145827 0 0 0 -0.35191,0.007 66.145827,66.145827 0 0 0 -0.3514,0.009 66.145827,66.145827 0 0 0 -0.35192,0.0109 66.145827,66.145827 0 0 0 -0.3514,0.0129 66.145827,66.145827 0 0 0 -0.3514,0.0145 66.145827,66.145827 0 0 0 -0.3514,0.0165 66.145827,66.145827 0 0 0 -0.3514,0.0186 66.145827,66.145827 0 0 0 -0.3514,0.0202 66.145827,66.145827 0 0 0 -0.35088,0.0222 66.145827,66.145827 0 0 0 -0.35088,0.0243 66.145827,66.145827 0 0 0 -0.35089,0.0258 66.145827,66.145827 0 0 0 -0.35088,0.0279 66.145827,66.145827 0 0 0 -0.35036,0.0295 66.145827,66.145827 0 0 0 -0.35037,0.0315 66.145827,66.145827 0 0 0 -0.35037,0.0336 66.145827,66.145827 0 0 0 -0.34985,0.0351 66.145827,66.145827 0 0 0 -0.34985,0.0367 66.145827,66.145827 0 0 0 -0.34933,0.0393 66.145827,66.145827 0 0 0 -0.34985,0.0408 66.145827,66.145827 0 0 0 -0.34882,0.0424 66.145827,66.145827 0 0 0 -0.34933,0.0444 66.145827,66.145827 0 0 0 -0.3483,0.0465 66.145827,66.145827 0 0 0 -0.34881,0.0481 66.145827,66.145827 0 0 0 -0.34778,0.0501 66.145827,66.145827 0 0 0 -0.34831,0.0522 66.145827,66.145827 0 0 0 -0.34726,0.0537 66.145827,66.145827 0 0 0 -0.34778,0.0558 66.145827,66.145827 0 0 0 -0.34675,0.0574 66.145827,66.145827 0 0 0 -0.34675,0.0594 66.145827,66.145827 0 0 0 -0.34675,0.061 66.145827,66.145827 0 0 0 -0.34571,0.063 66.145827,66.145827 0 0 0 -0.34572,0.0646 66.145827,66.145827 0 0 0 -0.34571,0.0667 66.145827,66.145827 0 0 0 -0.3452,0.0687 66.145827,66.145827 0 0 0 -0.34468,0.0703 66.145827,66.145827 0 0 0 -0.34417,0.0724 66.145827,66.145827 0 0 0 -0.34365,0.0739 66.145827,66.145827 0 0 0 -0.34365,0.076 66.145827,66.145827 0 0 0 -0.34313,0.0775 66.145827,66.145827 0 0 0 -0.34261,0.0796 66.145827,66.145827 0 0 0 -0.3421,0.0811 66.145827,66.145827 0 0 0 -0.3421,0.0832 66.145827,66.145827 0 0 0 -0.34106,0.0847 66.145827,66.145827 0 0 0 -0.34107,0.0868 66.145827,66.145827 0 0 0 -0.34055,0.0889 66.145827,66.145827 0 0 0 -0.34003,0.0904 66.145827,66.145827 0 0 0 -0.33951,0.092 66.145827,66.145827 0 0 0 -0.339,0.094 66.145827,66.145827 0 0 0 -0.33848,0.0956 66.145827,66.145827 0 0 0 -0.33796,0.0977 66.145827,66.145827 0 0 0 -0.33745,0.0992 66.145827,66.145827 0 0 0 -0.33693,0.10128 66.145827,66.145827 0 0 0 -0.33641,0.10284 66.145827,66.145827 0 0 0 -0.3359,0.1049 66.145827,66.145827 0 0 0 -0.33486,0.10645 66.145827,66.145827 0 0 0 -0.33487,0.10852 66.145827,66.145827 0 0 0 -0.33434,0.11007 66.145827,66.145827 0 0 0 -0.33332,0.11214 66.145827,66.145827 0 0 0 -0.33279,0.11369 66.145827,66.145827 0 0 0 -0.33228,0.11524 66.145827,66.145827 0 0 0 -0.33176,0.1173 66.145827,66.145827 0 0 0 -0.33125,0.11886 66.145827,66.145827 0 0 0 -0.33021,0.12041 66.145827,66.145827 0 0 0 -0.3297,0.12247 66.145827,66.145827 0 0 0 -0.32918,0.12454 66.145827,66.145827 0 0 0 -0.32866,0.12557 66.145827,66.145827 0 0 0 -0.32763,0.12816 66.145827,66.145827 0 0 0 -0.32711,0.12919 66.145827,66.145827 0 0 0 -0.3266,0.13126 66.145827,66.145827 0 0 0 -0.32555,0.13281 66.145827,66.145827 0 0 0 -0.32505,0.13487 66.145827,66.145827 0 0 0 -0.32401,0.13643 66.145827,66.145827 0 0 0 -0.32401,0.13798 66.145827,66.145827 0 0 0 -0.32246,0.13952 66.145827,66.145827 0 0 0 -0.32195,0.1416 66.145827,66.145827 0 0 0 -0.32143,0.14366 66.145827,66.145827 0 0 0 -0.32039,0.14469 66.145827,66.145827 0 0 0 -0.31988,0.14676 66.145827,66.145827 0 0 0 -0.31884,0.14831 66.145827,66.145827 0 0 0 -0.31833,0.14986 66.145827,66.145827 0 0 0 -0.31729,0.15193 66.145827,66.145827 0 0 0 -0.31678,0.15348 66.145827,66.145827 0 0 0 -0.31574,0.15503 66.145827,66.145827 0 0 0 -0.31471,0.15658 66.145827,66.145827 0 0 0 -0.31419,0.15865 66.145827,66.145827 0 0 0 -0.31316,0.16019 66.145827,66.145827 0 0 0 -0.31264,0.16175 66.145827,66.145827 0 0 0 -0.3111,0.1633 66.145827,66.145827 0 0 0 -0.31109,0.16536 66.145827,66.145827 0 0 0 -0.30954,0.1664 66.145827,66.145827 0 0 0 -0.30902,0.16847 66.145827,66.145827 0 0 0 -0.308,0.17001 66.145827,66.145827 0 0 0 -0.30695,0.17157 66.145827,66.145827 0 0 0 -0.30593,0.17363 66.145827,66.145827 0 0 0 -0.3054,0.17467 66.145827,66.145827 0 0 0 -0.30438,0.17673 66.145827,66.145827 0 0 0 -0.30334,0.17828 66.145827,66.145827 0 0 0 -0.30231,0.17984 66.145827,66.145827 0 0 0 -0.30127,0.18138 66.145827,66.145827 0 0 0 -0.30024,0.18294 66.145827,66.145827 0 0 0 -0.29973,0.18448 66.145827,66.145827 0 0 0 -0.29868,0.18604 66.145827,66.145827 0 0 0 -0.29714,0.18758 66.145827,66.145827 0 0 0 -0.29663,0.18966 66.145827,66.145827 0 0 0 -0.29559,0.19068 66.145827,66.145827 0 0 0 -0.29455,0.19275 66.145827,66.145827 0 0 0 -0.29301,0.19379 66.145827,66.145827 0 0 0 -0.29248,0.19585 66.145827,66.145827 0 0 0 -0.29146,0.19689 66.145827,66.145827 0 0 0 -0.29042,0.19896 66.145827,66.145827 0 0 0 -0.28887,0.19998 66.145827,66.145827 0 0 0 -0.28836,0.20206 66.145827,66.145827 0 0 0 -0.28732,0.20309 66.145827,66.145827 0 0 0 -0.28577,0.20464 66.145827,66.145827 0 0 0 -0.28474,0.2067 66.145827,66.145827 0 0 0 -0.28422,0.20774 66.145827,66.145827 0 0 0 -0.28267,0.20929 66.145827,66.145827 0 0 0 -0.28163,0.21084 66.145827,66.145827 0 0 0 -0.28009,0.21239 66.145827,66.145827 0 0 0 -0.27957,0.21394 66.145827,66.145827 0 0 0 -0.27802,0.21497 66.145827,66.145827 0 0 0 -0.27698,0.21705 66.145827,66.145827 0 0 0 -0.27596,0.21807 66.145827,66.145827 0 0 0 -0.27492,0.22014 66.145827,66.145827 0 0 0 -0.27336,0.22118 66.145827,66.145827 0 0 0 -0.27234,0.22221 66.145827,66.145827 0 0 0 -0.2713,0.22427 66.145827,66.145827 0 0 0 -0.26975,0.22583 66.145827,66.145827 0 0 0 -0.26872,0.22686 66.145827,66.145827 0 0 0 -0.26768,0.22841 66.145827,66.145827 0 0 0 -0.26665,0.22944 66.145827,66.145827 0 0 0 -0.2651,0.23151 66.145827,66.145827 0 0 0 -0.26355,0.23254 66.145827,66.145827 0 0 0 -0.26304,0.2341 66.145827,66.145827 0 0 0 -0.26096,0.23513 66.145827,66.145827 0 0 0 -0.26045,0.23719 66.145827,66.145827 0 0 0 -0.2589,0.23823 66.145827,66.145827 0 0 0 -0.25735,0.23926 66.145827,66.145827 0 0 0 -0.25631,0.24081 66.145827,66.145827 0 0 0 -0.25528,0.24237 66.145827,66.145827 0 0 0 -0.25374,0.24391 66.145827,66.145827 0 0 0 -0.25218,0.24495 66.145827,66.145827 0 0 0 -0.25114,0.24597 66.145827,66.145827 0 0 0 -0.25012,0.24805 66.145827,66.145827 0 0 0 -0.24856,0.24908 66.145827,66.145827 0 0 0 -0.24701,0.25012 66.145827,66.145827 0 0 0 -0.24598,0.25166 66.145827,66.145827 0 0 0 -0.24443,0.2527 66.145827,66.145827 0 0 0 -0.24288,0.25425 66.145827,66.145827 0 0 0 -0.24185,0.25579 66.145827,66.145827 0 0 0 -0.24081,0.25684 66.145827,66.145827 0 0 0 -0.23875,0.25786 66.145827,66.145827 0 0 0 -0.23771,0.25942 66.145827,66.145827 0 0 0 -0.23668,0.26045 66.145827,66.145827 0 0 0 -0.23461,0.262 66.145827,66.145827 0 0 0 -0.23357,0.26303 66.145827,66.145827 0 0 0 -0.23203,0.26407 66.145827,66.145827 0 0 0 -0.231,0.26561 66.145827,66.145827 0 0 0 -0.22892,0.26665 66.145827,66.145827 0 0 0 -0.2279,0.2682 66.145827,66.145827 0 0 0 -0.22685,0.26924 66.145827,66.145827 0 0 0 -0.2248,0.27027 66.145827,66.145827 0 0 0 -0.22376,0.27181 66.145827,66.145827 0 0 0 -0.2222,0.27285 66.145827,66.145827 0 0 0 -0.22066,0.27389 66.145827,66.145827 0 0 0 -0.21911,0.27492 66.145827,66.145827 0 0 0 -0.21756,0.27647 66.145827,66.145827 0 0 0 -0.21652,0.2775 66.145827,66.145827 0 0 0 -0.21446,0.27854 66.145827,66.145827 0 0 0 -0.21342,0.27957 66.145827,66.145827 0 0 0 -0.21188,0.28112 66.145827,66.145827 0 0 0 -0.21032,0.28163 66.145827,66.145827 0 0 0 -0.20877,0.28319 66.145827,66.145827 0 0 0 -0.20723,0.28422 66.145827,66.145827 0 0 0 -0.20618,0.28525 66.145827,66.145827 0 0 0 -0.20413,0.28629 66.145827,66.145827 0 0 0 -0.20257,0.28784 66.145827,66.145827 0 0 0 -0.20154,0.28835 66.145827,66.145827 0 0 0 -0.19947,0.28991 66.145827,66.145827 0 0 0 -0.19792,0.29042 66.145827,66.145827 0 0 0 -0.19689,0.29197 66.145827,66.145827 0 0 0 -0.19482,0.29249 66.145827,66.145827 0 0 0 -0.19378,0.29404 66.145827,66.145827 0 0 0 -0.19172,0.29456 66.145827,66.145827 0 0 0 -0.19017,0.2961 66.145827,66.145827 0 0 0 -0.18914,0.29662 66.145827,66.145827 0 0 0 -0.18707,0.29817 66.145827,66.145827 0 0 0 -0.18551,0.2987 66.145827,66.145827 0 0 0 -0.18397,0.29972 66.145827,66.145827 0 0 0 -0.18242,0.30076 66.145827,66.145827 0 0 0 -0.18087,0.30178 66.145827,66.145827 0 0 0 -0.17931,0.30283 66.145827,66.145827 0 0 0 -0.17725,0.30334 66.145827,66.145827 0 0 0 -0.17622,0.30489 66.145827,66.145827 0 0 0 -0.17415,0.30541 66.145827,66.145827 0 0 0 -0.17312,0.30644 66.145827,66.145827 0 0 0 -0.17105,0.30747 66.145827,66.145827 0 0 0 -0.16898,0.30851 66.145827,66.145827 0 0 0 -0.167952,0.30903 66.145827,66.145827 0 0 0 -0.16639,0.31006 66.145827,66.145827 0 0 0 -0.16433,0.31109 66.145827,66.145827 0 0 0 -0.16279,0.31161 66.145827,66.145827 0 0 0 -0.16123,0.31264 66.145827,66.145827 0 0 0 -0.15968,0.31368 66.145827,66.145827 0 0 0 -0.15761,0.31419 66.145827,66.145827 0 0 0 -0.15658,0.31522 66.145827,66.145827 0 0 0 -0.15451,0.31627 66.145827,66.145827 0 0 0 -0.15245,0.31677 66.145827,66.145827 0 0 0 -0.15141,0.31781 66.145827,66.145827 0 0 0 -0.14934,0.31833 66.145827,66.145827 0 0 0 -0.1478,0.31936 66.145827,66.145827 0 0 0 -0.14573,0.31987 66.145827,66.145827 0 0 0 -0.14469,0.32092 66.145827,66.145827 0 0 0 -0.14263,0.32142 66.145827,66.145827 0 0 0 -0.14107,0.32247 66.145827,66.145827 0 0 0 -0.13901,0.32297 66.145827,66.145827 0 0 0 -0.13746,0.3235 66.145827,66.145827 0 0 0 -0.13591,0.32452 66.145827,66.145827 0 0 0 -0.13384,0.32557 66.145827,66.145827 0 0 0 -0.13229,0.32607 66.145827,66.145827 0 0 0 -0.13075,0.3266 66.145827,66.145827 0 0 0 -0.12867,0.32711 66.145827,66.145827 0 0 0 -0.12712,0.32815 66.145827,66.145827 0 0 0 -0.12506,0.32866 66.145827,66.145827 0 0 0 -0.12403,0.32918 66.145827,66.145827 0 0 0 -0.12143,0.33021 66.145827,66.145827 0 0 0 -0.12041,0.33073 66.145827,66.145827 0 0 0 -0.11834,0.33125 66.145827,66.145827 0 0 0 -0.11627,0.33176 66.145827,66.145827 0 0 0 -0.11472,0.33279 66.145827,66.145827 0 0 0 -0.11317,0.3328 66.145827,66.145827 0 0 0 -0.11111,0.33383 66.145827,66.145827 0 0 0 -0.10955,0.33435 66.145827,66.145827 0 0 0 -0.10801,0.33486 66.145827,66.145827 0 0 0 -0.10593,0.33538 66.145827,66.145827 0 0 0 -0.10387,0.33641 66.145827,66.145827 0 0 0 -0.10232,0.33642 66.145827,66.145827 0 0 0 -0.10077,0.33693 66.145827,66.145827 0 0 0 -0.0987,0.33796 66.145827,66.145827 0 0 0 -0.0966,0.33796 66.145827,66.145827 0 0 0 -0.0951,0.33848 66.145827,66.145827 0 0 0 -0.0935,0.33952 66.145827,66.145827 0 0 0 -0.0915,0.33951 66.145827,66.145827 0 0 0 -0.0899,0.34003 66.145827,66.145827 0 0 0 -0.0879,0.34055 66.145827,66.145827 0 0 0 -0.0863,0.34107 66.145827,66.145827 0 0 0 -0.0842,0.34158 66.145827,66.145827 0 0 0 -0.0822,0.3421 66.145827,66.145827 0 0 0 -0.0811,0.34261 66.145827,66.145827 0 0 0 -0.0786,0.34261 66.145827,66.145827 0 0 0 -0.077,0.34314 66.145827,66.145827 0 0 0 -0.0754,0.34365 66.145827,66.145827 0 0 0 -0.0734,0.34416 66.145827,66.145827 0 0 0 -0.0713,0.34468 66.145827,66.145827 0 0 0 -0.0698,0.34468 66.145827,66.145827 0 0 0 -0.0677,0.3452 66.145827,66.145827 0 0 0 -0.0661,0.3452 66.145827,66.145827 0 0 0 -0.0641,0.34623 66.145827,66.145827 0 0 0 -0.0625,0.34623 66.145827,66.145827 0 0 0 -0.0605,0.34624 66.145827,66.145827 0 0 0 -0.0584,0.34675 66.145827,66.145827 0 0 0 -0.0568,0.34726 66.145827,66.145827 0 0 0 -0.0553,0.34778 66.145827,66.145827 0 0 0 -0.0527,0.34779 66.145827,66.145827 0 0 0 -0.0517,0.34778 66.145827,66.145827 0 0 0 -0.0491,0.3483 66.145827,66.145827 0 0 0 -0.0476,0.34881 66.145827,66.145827 0 0 0 -0.046,0.34882 66.145827,66.145827 0 0 0 -0.0439,0.34881 66.145827,66.145827 0 0 0 -0.0419,0.34934 66.145827,66.145827 0 0 0 -0.0403,0.34933 66.145827,66.145827 0 0 0 -0.0382,0.34985 66.145827,66.145827 0 0 0 -0.0362,0.34985 66.145827,66.145827 0 0 0 -0.0346,0.34985 66.145827,66.145827 0 0 0 -0.0326,0.35036 66.145827,66.145827 0 0 0 -0.031,0.35037 66.145827,66.145827 0 0 0 -0.0289,0.35088 66.145827,66.145827 0 0 0 -0.0269,0.35037 66.145827,66.145827 0 0 0 -0.0253,0.35088 66.145827,66.145827 0 0 0 -0.0233,0.3514 66.145827,66.145827 0 0 0 -0.0217,0.35089 66.145827,66.145827 0 0 0 -0.0196,0.3514 66.145827,66.145827 0 0 0 -0.0176,0.35139 66.145827,66.145827 0 0 0 -0.016,0.35141 66.145827,66.145827 0 0 0 -0.0139,0.35139 66.145827,66.145827 0 0 0 -0.0124,0.35141 66.145827,66.145827 0 0 0 -0.0103,0.35191 66.145827,66.145827 0 0 0 -0.008,0.3514 66.145827,66.145827 0 0 0 -0.007,0.35192 66.145827,66.145827 0 0 0 -0.005,0.35191 66.145827,66.145827 0 0 0 -0.003,0.3514 66.145827,66.145827 0 0 0 -0.001,0.35192 v 0.12557 a 66.145827,66.145827 0 0 0 0.002,0.35192 66.145827,66.145827 0 0 0 0.004,0.35192 66.145827,66.145827 0 0 0 0.005,0.3514 66.145827,66.145827 0 0 0 0.007,0.35191 66.145827,66.145827 0 0 0 0.009,0.3514 66.145827,66.145827 0 0 0 0.0108,0.35192 66.145827,66.145827 0 0 0 0.0129,0.3514 66.145827,66.145827 0 0 0 0.0145,0.3514 66.145827,66.145827 0 0 0 0.0165,0.3514 66.145827,66.145827 0 0 0 0.0186,0.3514 66.145827,66.145827 0 0 0 0.0202,0.3514 66.145827,66.145827 0 0 0 0.0222,0.35088 66.145827,66.145827 0 0 0 0.0243,0.35088 66.145827,66.145827 0 0 0 0.0258,0.35089 66.145827,66.145827 0 0 0 0.0279,0.35088 66.145827,66.145827 0 0 0 0.0294,0.35036 66.145827,66.145827 0 0 0 0.0315,0.35037 66.145827,66.145827 0 0 0 0.0336,0.35037 66.145827,66.145827 0 0 0 0.0351,0.34985 66.145827,66.145827 0 0 0 0.0367,0.34985 66.145827,66.145827 0 0 0 0.0393,0.34933 66.145827,66.145827 0 0 0 0.0408,0.34985 66.145827,66.145827 0 0 0 0.0424,0.34882 66.145827,66.145827 0 0 0 0.0444,0.34933 66.145827,66.145827 0 0 0 0.0465,0.3483 66.145827,66.145827 0 0 0 0.0481,0.34881 66.145827,66.145827 0 0 0 0.0501,0.34778 66.145827,66.145827 0 0 0 0.0522,0.34831 66.145827,66.145827 0 0 0 0.0537,0.34726 66.145827,66.145827 0 0 0 0.0558,0.34778 66.145827,66.145827 0 0 0 0.0574,0.34675 66.145827,66.145827 0 0 0 0.0594,0.34675 66.145827,66.145827 0 0 0 0.061,0.34675 66.145827,66.145827 0 0 0 0.063,0.34571 66.145827,66.145827 0 0 0 0.0646,0.34572 66.145827,66.145827 0 0 0 0.0667,0.34571 66.145827,66.145827 0 0 0 0.0687,0.3452 66.145827,66.145827 0 0 0 0.0703,0.34468 66.145827,66.145827 0 0 0 0.0724,0.34417 66.145827,66.145827 0 0 0 0.0739,0.34365 66.145827,66.145827 0 0 0 0.076,0.34365 66.145827,66.145827 0 0 0 0.0775,0.34313 66.145827,66.145827 0 0 0 0.0796,0.34261 66.145827,66.145827 0 0 0 0.0811,0.3421 66.145827,66.145827 0 0 0 0.0832,0.3421 66.145827,66.145827 0 0 0 0.0847,0.34106 66.145827,66.145827 0 0 0 0.0868,0.34107 66.145827,66.145827 0 0 0 0.0889,0.34055 66.145827,66.145827 0 0 0 0.0904,0.34003 66.145827,66.145827 0 0 0 0.092,0.33951 66.145827,66.145827 0 0 0 0.094,0.339 66.145827,66.145827 0 0 0 0.0956,0.33848 66.145827,66.145827 0 0 0 0.0977,0.33796 66.145827,66.145827 0 0 0 0.0992,0.33745 66.145827,66.145827 0 0 0 0.10128,0.33693 66.145827,66.145827 0 0 0 0.10284,0.33641 66.145827,66.145827 0 0 0 0.1049,0.3359 66.145827,66.145827 0 0 0 0.10645,0.33486 66.145827,66.145827 0 0 0 0.10852,0.33487 66.145827,66.145827 0 0 0 0.11007,0.33434 66.145827,66.145827 0 0 0 0.11214,0.33332 66.145827,66.145827 0 0 0 0.11317,0.33279 66.145827,66.145827 0 0 0 0.11576,0.33228 66.145827,66.145827 0 0 0 0.1173,0.33176 66.145827,66.145827 0 0 0 0.11886,0.33125 66.145827,66.145827 0 0 0 0.12041,0.33021 66.145827,66.145827 0 0 0 0.12247,0.3297 66.145827,66.145827 0 0 0 0.12454,0.32918 66.145827,66.145827 0 0 0 0.12557,0.32866 66.145827,66.145827 0 0 0 0.12816,0.32763 66.145827,66.145827 0 0 0 0.12919,0.32711 66.145827,66.145827 0 0 0 0.13126,0.3266 66.145827,66.145827 0 0 0 0.13281,0.32555 66.145827,66.145827 0 0 0 0.13487,0.32505 66.145827,66.145827 0 0 0 0.13643,0.32401 66.145827,66.145827 0 0 0 0.13798,0.32401 66.145827,66.145827 0 0 0 0.13952,0.32246 66.145827,66.145827 0 0 0 0.1416,0.32195 66.145827,66.145827 0 0 0 0.14366,0.32143 66.145827,66.145827 0 0 0 0.14469,0.32039 66.145827,66.145827 0 0 0 0.14676,0.31988 66.145827,66.145827 0 0 0 0.14831,0.31884 66.145827,66.145827 0 0 0 0.14986,0.31833 66.145827,66.145827 0 0 0 0.15193,0.31729 66.145827,66.145827 0 0 0 0.15348,0.31678 66.145827,66.145827 0 0 0 0.15503,0.31574 66.145827,66.145827 0 0 0 0.15658,0.31471 66.145827,66.145827 0 0 0 0.15865,0.31419 66.145827,66.145827 0 0 0 0.16019,0.31316 66.145827,66.145827 0 0 0 0.16175,0.31264 66.145827,66.145827 0 0 0 0.1633,0.3111 66.145827,66.145827 0 0 0 0.16536,0.31109 66.145827,66.145827 0 0 0 0.166402,0.30954 66.145827,66.145827 0 0 0 0.16847,0.30902 66.145827,66.145827 0 0 0 0.17001,0.308 66.145827,66.145827 0 0 0 0.17157,0.30695 66.145827,66.145827 0 0 0 0.17363,0.30593 66.145827,66.145827 0 0 0 0.17467,0.3054 66.145827,66.145827 0 0 0 0.17673,0.30438 66.145827,66.145827 0 0 0 0.17828,0.30334 66.145827,66.145827 0 0 0 0.17984,0.30231 66.145827,66.145827 0 0 0 0.18138,0.30127 66.145827,66.145827 0 0 0 0.18294,0.30024 66.145827,66.145827 0 0 0 0.18448,0.29973 66.145827,66.145827 0 0 0 0.18604,0.29868 66.145827,66.145827 0 0 0 0.18758,0.29714 66.145827,66.145827 0 0 0 0.18966,0.29663 66.145827,66.145827 0 0 0 0.19068,0.29559 66.145827,66.145827 0 0 0 0.19275,0.29455 66.145827,66.145827 0 0 0 0.19379,0.29301 66.145827,66.145827 0 0 0 0.19585,0.29248 66.145827,66.145827 0 0 0 0.19689,0.29146 66.145827,66.145827 0 0 0 0.19896,0.29042 66.145827,66.145827 0 0 0 0.19998,0.28887 66.145827,66.145827 0 0 0 0.20206,0.28836 66.145827,66.145827 0 0 0 0.20309,0.28732 66.145827,66.145827 0 0 0 0.20464,0.28577 66.145827,66.145827 0 0 0 0.2067,0.28474 66.145827,66.145827 0 0 0 0.20774,0.28422 66.145827,66.145827 0 0 0 0.20929,0.28267 66.145827,66.145827 0 0 0 0.21084,0.28163 66.145827,66.145827 0 0 0 0.21239,0.28009 66.145827,66.145827 0 0 0 0.21394,0.27957 66.145827,66.145827 0 0 0 0.21497,0.27802 66.145827,66.145827 0 0 0 0.21705,0.27698 66.145827,66.145827 0 0 0 0.21807,0.27596 66.145827,66.145827 0 0 0 0.22014,0.27491 66.145827,66.145827 0 0 0 0.22118,0.27337 66.145827,66.145827 0 0 0 0.22221,0.27234 66.145827,66.145827 0 0 0 0.22427,0.2713 66.145827,66.145827 0 0 0 0.22583,0.26975 66.145827,66.145827 0 0 0 0.22686,0.26872 66.145827,66.145827 0 0 0 0.22841,0.26768 66.145827,66.145827 0 0 0 0.22944,0.26665 66.145827,66.145827 0 0 0 0.23151,0.2651 66.145827,66.145827 0 0 0 0.23254,0.26355 66.145827,66.145827 0 0 0 0.2341,0.26304 66.145827,66.145827 0 0 0 0.23513,0.26096 66.145827,66.145827 0 0 0 0.23719,0.26045 66.145827,66.145827 0 0 0 0.23823,0.2589 66.145827,66.145827 0 0 0 0.23926,0.25735 66.145827,66.145827 0 0 0 0.24081,0.25631 66.145827,66.145827 0 0 0 0.24237,0.25528 66.145827,66.145827 0 0 0 0.24391,0.25373 66.145827,66.145827 0 0 0 0.24495,0.25219 66.145827,66.145827 0 0 0 0.24597,0.25114 66.145827,66.145827 0 0 0 0.24805,0.25012 66.145827,66.145827 0 0 0 0.24908,0.24856 66.145827,66.145827 0 0 0 0.25012,0.24702 66.145827,66.145827 0 0 0 0.25166,0.24597 66.145827,66.145827 0 0 0 0.2527,0.24443 66.145827,66.145827 0 0 0 0.25425,0.24288 66.145827,66.145827 0 0 0 0.25579,0.24185 66.145827,66.145827 0 0 0 0.25684,0.24081 66.145827,66.145827 0 0 0 0.25786,0.23875 66.145827,66.145827 0 0 0 0.25942,0.23771 66.145827,66.145827 0 0 0 0.26045,0.23668 66.145827,66.145827 0 0 0 0.262,0.23461 66.145827,66.145827 0 0 0 0.26303,0.23357 66.145827,66.145827 0 0 0 0.26407,0.23203 66.145827,66.145827 0 0 0 0.26561,0.23099 66.145827,66.145827 0 0 0 0.26665,0.22893 66.145827,66.145827 0 0 0 0.2682,0.2279 66.145827,66.145827 0 0 0 0.26924,0.22686 66.145827,66.145827 0 0 0 0.27027,0.22479 66.145827,66.145827 0 0 0 0.27181,0.22376 66.145827,66.145827 0 0 0 0.27285,0.2222 66.145827,66.145827 0 0 0 0.27389,0.22066 66.145827,66.145827 0 0 0 0.27492,0.21911 66.145827,66.145827 0 0 0 0.27647,0.21756 66.145827,66.145827 0 0 0 0.2775,0.21652 66.145827,66.145827 0 0 0 0.27854,0.21446 66.145827,66.145827 0 0 0 0.27957,0.21343 66.145827,66.145827 0 0 0 0.28112,0.21187 66.145827,66.145827 0 0 0 0.28163,0.21032 66.145827,66.145827 0 0 0 0.28319,0.20877 66.145827,66.145827 0 0 0 0.28422,0.20722 66.145827,66.145827 0 0 0 0.28525,0.20619 66.145827,66.145827 0 0 0 0.28629,0.20413 66.145827,66.145827 0 0 0 0.28784,0.20257 66.145827,66.145827 0 0 0 0.28835,0.20154 66.145827,66.145827 0 0 0 0.28991,0.19947 66.145827,66.145827 0 0 0 0.29042,0.19792 66.145827,66.145827 0 0 0 0.29197,0.19688 66.145827,66.145827 0 0 0 0.29249,0.19482 66.145827,66.145827 0 0 0 0.29404,0.19379 66.145827,66.145827 0 0 0 0.29456,0.19172 66.145827,66.145827 0 0 0 0.2961,0.19017 66.145827,66.145827 0 0 0 0.29662,0.18914 66.145827,66.145827 0 0 0 0.29766,0.18707 66.145827,66.145827 0 0 0 0.29921,0.18551 66.145827,66.145827 0 0 0 0.29972,0.18397 66.145827,66.145827 0 0 0 0.30076,0.18242 66.145827,66.145827 0 0 0 0.30178,0.18087 66.145827,66.145827 0 0 0 0.30283,0.17931 66.145827,66.145827 0 0 0 0.30334,0.17725 66.145827,66.145827 0 0 0 0.30489,0.17622 66.145827,66.145827 0 0 0 0.30541,0.17415 66.145827,66.145827 0 0 0 0.30644,0.17312 66.145827,66.145827 0 0 0 0.30747,0.17104 66.145827,66.145827 0 0 0 0.30851,0.16899 66.145827,66.145827 0 0 0 0.30903,0.16795 66.145827,66.145827 0 0 0 0.31006,0.16639 66.145827,66.145827 0 0 0 0.31109,0.16433 66.145827,66.145827 0 0 0 0.31161,0.16279 66.145827,66.145827 0 0 0 0.31264,0.16123 66.145827,66.145827 0 0 0 0.31368,0.15968 66.145827,66.145827 0 0 0 0.31419,0.15761 66.145827,66.145827 0 0 0 0.31522,0.15658 66.145827,66.145827 0 0 0 0.31627,0.15451 66.145827,66.145827 0 0 0 0.31677,0.15245 66.145827,66.145827 0 0 0 0.31781,0.15141 66.145827,66.145827 0 0 0 0.31833,0.14934 66.145827,66.145827 0 0 0 0.31936,0.1478 66.145827,66.145827 0 0 0 0.31987,0.14573 66.145827,66.145827 0 0 0 0.32092,0.14469 66.145827,66.145827 0 0 0 0.32142,0.14263 66.145827,66.145827 0 0 0 0.32247,0.14107 66.145827,66.145827 0 0 0 0.32297,0.13901 66.145827,66.145827 0 0 0 0.3235,0.13746 66.145827,66.145827 0 0 0 0.32452,0.13591 66.145827,66.145827 0 0 0 0.32557,0.13384 66.145827,66.145827 0 0 0 0.32607,0.13229 66.145827,66.145827 0 0 0 0.3266,0.13075 66.145827,66.145827 0 0 0 0.32711,0.12867 66.145827,66.145827 0 0 0 0.32815,0.12712 66.145827,66.145827 0 0 0 0.32866,0.12506 66.145827,66.145827 0 0 0 0.32918,0.12403 66.145827,66.145827 0 0 0 0.33021,0.12143 66.145827,66.145827 0 0 0 0.33073,0.12041 66.145827,66.145827 0 0 0 0.33125,0.11834 66.145827,66.145827 0 0 0 0.33176,0.11627 66.145827,66.145827 0 0 0 0.33279,0.11472 66.145827,66.145827 0 0 0 0.3328,0.11317 66.145827,66.145827 0 0 0 0.33383,0.11111 66.145827,66.145827 0 0 0 0.33435,0.10955 66.145827,66.145827 0 0 0 0.33486,0.10801 66.145827,66.145827 0 0 0 0.33538,0.10593 66.145827,66.145827 0 0 0 0.33641,0.10387 66.145827,66.145827 0 0 0 0.33642,0.10232 66.145827,66.145827 0 0 0 0.33693,0.10077 66.145827,66.145827 0 0 0 0.33796,0.0987 66.145827,66.145827 0 0 0 0.33796,0.0966 66.145827,66.145827 0 0 0 0.33848,0.0951 66.145827,66.145827 0 0 0 0.33952,0.0935 66.145827,66.145827 0 0 0 0.33951,0.0915 66.145827,66.145827 0 0 0 0.34003,0.0899 66.145827,66.145827 0 0 0 0.34055,0.0879 66.145827,66.145827 0 0 0 0.34107,0.0863 66.145827,66.145827 0 0 0 0.34158,0.0842 66.145827,66.145827 0 0 0 0.3421,0.0822 66.145827,66.145827 0 0 0 0.34261,0.0811 66.145827,66.145827 0 0 0 0.34261,0.0786 66.145827,66.145827 0 0 0 0.34314,0.077 66.145827,66.145827 0 0 0 0.34365,0.0754 66.145827,66.145827 0 0 0 0.34416,0.0734 66.145827,66.145827 0 0 0 0.34468,0.0713 66.145827,66.145827 0 0 0 0.34468,0.0698 66.145827,66.145827 0 0 0 0.3452,0.0677 66.145827,66.145827 0 0 0 0.3452,0.0661 66.145827,66.145827 0 0 0 0.34623,0.0641 66.145827,66.145827 0 0 0 0.34623,0.0625 66.145827,66.145827 0 0 0 0.34624,0.0605 66.145827,66.145827 0 0 0 0.34675,0.0584 66.145827,66.145827 0 0 0 0.34726,0.0568 66.145827,66.145827 0 0 0 0.34778,0.0553 66.145827,66.145827 0 0 0 0.34779,0.0527 66.145827,66.145827 0 0 0 0.34778,0.0517 66.145827,66.145827 0 0 0 0.3483,0.0491 66.145827,66.145827 0 0 0 0.34881,0.0476 66.145827,66.145827 0 0 0 0.34882,0.046 66.145827,66.145827 0 0 0 0.34881,0.0439 66.145827,66.145827 0 0 0 0.34934,0.0419 66.145827,66.145827 0 0 0 0.34933,0.0403 66.145827,66.145827 0 0 0 0.34985,0.0382 66.145827,66.145827 0 0 0 0.34985,0.0362 66.145827,66.145827 0 0 0 0.34985,0.0346 66.145827,66.145827 0 0 0 0.35036,0.0325 66.145827,66.145827 0 0 0 0.35037,0.031 66.145827,66.145827 0 0 0 0.35088,0.0289 66.145827,66.145827 0 0 0 0.35037,0.0269 66.145827,66.145827 0 0 0 0.35088,0.0253 66.145827,66.145827 0 0 0 0.3514,0.0233 66.145827,66.145827 0 0 0 0.35089,0.0217 66.145827,66.145827 0 0 0 0.3514,0.0196 66.145827,66.145827 0 0 0 0.35139,0.0176 66.145827,66.145827 0 0 0 0.35141,0.016 66.145827,66.145827 0 0 0 0.35139,0.0139 66.145827,66.145827 0 0 0 0.35141,0.0124 66.145827,66.145827 0 0 0 0.35191,0.0103 66.145827,66.145827 0 0 0 0.3514,0.008 66.145827,66.145827 0 0 0 0.35192,0.007 66.145827,66.145827 0 0 0 0.35191,0.005 66.145827,66.145827 0 0 0 0.3514,0.003 66.145827,66.145827 0 0 0 0.35192,9.9e-4 h 0.12557 a 66.145827,66.145827 0 0 0 0.35192,-0.002 66.145827,66.145827 0 0 0 0.35192,-0.004 66.145827,66.145827 0 0 0 0.3514,-0.005 66.145827,66.145827 0 0 0 0.35191,-0.007 66.145827,66.145827 0 0 0 0.3514,-0.009 66.145827,66.145827 0 0 0 0.35192,-0.0109 66.145827,66.145827 0 0 0 0.3514,-0.0129 66.145827,66.145827 0 0 0 0.3514,-0.0145 66.145827,66.145827 0 0 0 0.3514,-0.0165 66.145827,66.145827 0 0 0 0.3514,-0.0186 66.145827,66.145827 0 0 0 0.3514,-0.0202 66.145827,66.145827 0 0 0 0.35088,-0.0222 66.145827,66.145827 0 0 0 0.35088,-0.0243 66.145827,66.145827 0 0 0 0.35089,-0.0259 66.145827,66.145827 0 0 0 0.35088,-0.0279 66.145827,66.145827 0 0 0 0.35036,-0.0295 66.145827,66.145827 0 0 0 0.35037,-0.0315 66.145827,66.145827 0 0 0 0.35037,-0.0336 66.145827,66.145827 0 0 0 0.34985,-0.0351 66.145827,66.145827 0 0 0 0.34985,-0.0367 66.145827,66.145827 0 0 0 0.34933,-0.0393 66.145827,66.145827 0 0 0 0.34985,-0.0408 66.145827,66.145827 0 0 0 0.34882,-0.0424 66.145827,66.145827 0 0 0 0.34933,-0.0444 66.145827,66.145827 0 0 0 0.3483,-0.0465 66.145827,66.145827 0 0 0 0.34881,-0.0481 66.145827,66.145827 0 0 0 0.34778,-0.0501 66.145827,66.145827 0 0 0 0.34831,-0.0522 66.145827,66.145827 0 0 0 0.34726,-0.0537 66.145827,66.145827 0 0 0 0.34778,-0.0558 66.145827,66.145827 0 0 0 0.34675,-0.0574 66.145827,66.145827 0 0 0 0.34675,-0.0594 66.145827,66.145827 0 0 0 0.34675,-0.061 66.145827,66.145827 0 0 0 0.34571,-0.063 66.145827,66.145827 0 0 0 0.34572,-0.0646 66.145827,66.145827 0 0 0 0.34571,-0.0667 66.145827,66.145827 0 0 0 0.3452,-0.0687 66.145827,66.145827 0 0 0 0.34468,-0.0703 66.145827,66.145827 0 0 0 0.34417,-0.0723 66.145827,66.145827 0 0 0 0.34365,-0.0739 66.145827,66.145827 0 0 0 0.34365,-0.076 66.145827,66.145827 0 0 0 0.34313,-0.0775 66.145827,66.145827 0 0 0 0.34261,-0.0796 66.145827,66.145827 0 0 0 0.3421,-0.0811 66.145827,66.145827 0 0 0 0.3421,-0.0832 66.145827,66.145827 0 0 0 0.34106,-0.0847 66.145827,66.145827 0 0 0 0.34107,-0.0868 66.145827,66.145827 0 0 0 0.34055,-0.0889 66.145827,66.145827 0 0 0 0.34003,-0.0904 66.145827,66.145827 0 0 0 0.33951,-0.092 66.145827,66.145827 0 0 0 0.339,-0.094 66.145827,66.145827 0 0 0 0.33848,-0.0956 66.145827,66.145827 0 0 0 0.33796,-0.0977 66.145827,66.145827 0 0 0 0.33745,-0.0992 66.145827,66.145827 0 0 0 0.33693,-0.10129 66.145827,66.145827 0 0 0 0.33641,-0.10283 66.145827,66.145827 0 0 0 0.3359,-0.10491 66.145827,66.145827 0 0 0 0.33486,-0.10645 66.145827,66.145827 0 0 0 0.33487,-0.10852 66.145827,66.145827 0 0 0 0.33434,-0.11007 66.145827,66.145827 0 0 0 0.33332,-0.11214 66.145827,66.145827 0 0 0 0.33279,-0.11317 66.145827,66.145827 0 0 0 0.33228,-0.11576 66.145827,66.145827 0 0 0 0.33176,-0.1173 66.145827,66.145827 0 0 0 0.33125,-0.11886 66.145827,66.145827 0 0 0 0.33021,-0.1204 66.145827,66.145827 0 0 0 0.3297,-0.12248 66.145827,66.145827 0 0 0 0.32918,-0.12454 66.145827,66.145827 0 0 0 0.32866,-0.12557 66.145827,66.145827 0 0 0 0.32763,-0.12816 66.145827,66.145827 0 0 0 0.32711,-0.12919 66.145827,66.145827 0 0 0 0.3266,-0.13126 66.145827,66.145827 0 0 0 0.32555,-0.13281 66.145827,66.145827 0 0 0 0.32505,-0.13487 66.145827,66.145827 0 0 0 0.32401,-0.13643 66.145827,66.145827 0 0 0 0.32401,-0.13797 66.145827,66.145827 0 0 0 0.32246,-0.13953 66.145827,66.145827 0 0 0 0.32195,-0.14159 66.145827,66.145827 0 0 0 0.32143,-0.14366 66.145827,66.145827 0 0 0 0.32039,-0.1447 66.145827,66.145827 0 0 0 0.31988,-0.14676 66.145827,66.145827 0 0 0 0.31884,-0.14831 66.145827,66.145827 0 0 0 0.31833,-0.14986 66.145827,66.145827 0 0 0 0.31729,-0.15193 66.145827,66.145827 0 0 0 0.31678,-0.15348 66.145827,66.145827 0 0 0 0.31574,-0.15503 66.145827,66.145827 0 0 0 0.31471,-0.15658 66.145827,66.145827 0 0 0 0.31419,-0.15865 66.145827,66.145827 0 0 0 0.31316,-0.16019 66.145827,66.145827 0 0 0 0.31264,-0.16175 66.145827,66.145827 0 0 0 0.3111,-0.1633 66.145827,66.145827 0 0 0 0.31109,-0.16536 66.145827,66.145827 0 0 0 0.30954,-0.1664 66.145827,66.145827 0 0 0 0.30902,-0.16847 66.145827,66.145827 0 0 0 0.308,-0.17001 66.145827,66.145827 0 0 0 0.30695,-0.17157 66.145827,66.145827 0 0 0 0.30593,-0.17363 66.145827,66.145827 0 0 0 0.3054,-0.17467 66.145827,66.145827 0 0 0 0.30437,-0.17673 66.145827,66.145827 0 0 0 0.30334,-0.17828 66.145827,66.145827 0 0 0 0.302308,-0.17984 66.145827,66.145827 0 0 0 0.30127,-0.18138 66.145827,66.145827 0 0 0 0.30024,-0.18293 66.145827,66.145827 0 0 0 0.29973,-0.18449 66.145827,66.145827 0 0 0 0.29868,-0.18604 66.145827,66.145827 0 0 0 0.29714,-0.18758 66.145827,66.145827 0 0 0 0.29663,-0.18965 66.145827,66.145827 0 0 0 0.29559,-0.19069 66.145827,66.145827 0 0 0 0.29455,-0.19275 66.145827,66.145827 0 0 0 0.29301,-0.19379 66.145827,66.145827 0 0 0 0.29248,-0.19585 66.145827,66.145827 0 0 0 0.29146,-0.19689 66.145827,66.145827 0 0 0 0.29042,-0.19896 66.145827,66.145827 0 0 0 0.28887,-0.19998 66.145827,66.145827 0 0 0 0.28836,-0.20206 66.145827,66.145827 0 0 0 0.28732,-0.20309 66.145827,66.145827 0 0 0 0.28577,-0.20463 66.145827,66.145827 0 0 0 0.28474,-0.20671 66.145827,66.145827 0 0 0 0.28422,-0.20774 66.145827,66.145827 0 0 0 0.28267,-0.20929 66.145827,66.145827 0 0 0 0.28163,-0.21084 66.145827,66.145827 0 0 0 0.28009,-0.21239 66.145827,66.145827 0 0 0 0.27957,-0.21394 66.145827,66.145827 0 0 0 0.27802,-0.21497 66.145827,66.145827 0 0 0 0.27698,-0.21704 66.145827,66.145827 0 0 0 0.27596,-0.21808 66.145827,66.145827 0 0 0 0.27491,-0.22014 66.145827,66.145827 0 0 0 0.27337,-0.22118 66.145827,66.145827 0 0 0 0.27234,-0.2222 66.145827,66.145827 0 0 0 0.2713,-0.22428 66.145827,66.145827 0 0 0 0.26975,-0.22582 66.145827,66.145827 0 0 0 0.26872,-0.22687 66.145827,66.145827 0 0 0 0.26768,-0.22841 66.145827,66.145827 0 0 0 0.26665,-0.22944 66.145827,66.145827 0 0 0 0.2651,-0.23151 66.145827,66.145827 0 0 0 0.26355,-0.23254 66.145827,66.145827 0 0 0 0.26304,-0.2341 66.145827,66.145827 0 0 0 0.26096,-0.23512 66.145827,66.145827 0 0 0 0.26045,-0.2372 66.145827,66.145827 0 0 0 0.2589,-0.23823 66.145827,66.145827 0 0 0 0.25735,-0.23926 66.145827,66.145827 0 0 0 0.25631,-0.24081 66.145827,66.145827 0 0 0 0.25528,-0.24236 66.145827,66.145827 0 0 0 0.25373,-0.24392 66.145827,66.145827 0 0 0 0.25219,-0.24494 66.145827,66.145827 0 0 0 0.25114,-0.24598 66.145827,66.145827 0 0 0 0.25012,-0.24805 66.145827,66.145827 0 0 0 0.24856,-0.24908 66.145827,66.145827 0 0 0 0.24702,-0.25011 66.145827,66.145827 0 0 0 0.24597,-0.25167 66.145827,66.145827 0 0 0 0.24443,-0.25269 66.145827,66.145827 0 0 0 0.24288,-0.25425 66.145827,66.145827 0 0 0 0.24185,-0.2558 66.145827,66.145827 0 0 0 0.24081,-0.25683 66.145827,66.145827 0 0 0 0.23875,-0.25787 66.145827,66.145827 0 0 0 0.23771,-0.25942 66.145827,66.145827 0 0 0 0.23668,-0.26044 66.145827,66.145827 0 0 0 0.23461,-0.262 66.145827,66.145827 0 0 0 0.23357,-0.26304 66.145827,66.145827 0 0 0 0.23203,-0.26406 66.145827,66.145827 0 0 0 0.23099,-0.26562 66.145827,66.145827 0 0 0 0.22893,-0.26665 66.145827,66.145827 0 0 0 0.2279,-0.2682 66.145827,66.145827 0 0 0 0.22686,-0.26923 66.145827,66.145827 0 0 0 0.22479,-0.27027 66.145827,66.145827 0 0 0 0.22376,-0.27182 66.145827,66.145827 0 0 0 0.2222,-0.27285 66.145827,66.145827 0 0 0 0.22066,-0.27389 66.145827,66.145827 0 0 0 0.21911,-0.27492 66.145827,66.145827 0 0 0 0.21756,-0.27646 66.145827,66.145827 0 0 0 0.21652,-0.27751 66.145827,66.145827 0 0 0 0.21446,-0.27853 66.145827,66.145827 0 0 0 0.21343,-0.27957 66.145827,66.145827 0 0 0 0.21187,-0.28112 66.145827,66.145827 0 0 0 0.21032,-0.28164 66.145827,66.145827 0 0 0 0.20877,-0.28319 66.145827,66.145827 0 0 0 0.20722,-0.28422 66.145827,66.145827 0 0 0 0.20619,-0.28525 66.145827,66.145827 0 0 0 0.20413,-0.28629 66.145827,66.145827 0 0 0 0.20257,-0.28784 66.145827,66.145827 0 0 0 0.20154,-0.28835 66.145827,66.145827 0 0 0 0.19947,-0.2899 66.145827,66.145827 0 0 0 0.19792,-0.29043 66.145827,66.145827 0 0 0 0.19688,-0.29197 66.145827,66.145827 0 0 0 0.19482,-0.29249 66.145827,66.145827 0 0 0 0.19379,-0.29403 66.145827,66.145827 0 0 0 0.19172,-0.29456 66.145827,66.145827 0 0 0 0.19017,-0.29611 66.145827,66.145827 0 0 0 0.18914,-0.29662 66.145827,66.145827 0 0 0 0.18707,-0.29766 66.145827,66.145827 0 0 0 0.18551,-0.2992 66.145827,66.145827 0 0 0 0.18397,-0.29973 66.145827,66.145827 0 0 0 0.18242,-0.30075 66.145827,66.145827 0 0 0 0.18087,-0.30179 66.145827,66.145827 0 0 0 0.17931,-0.30283 66.145827,66.145827 0 0 0 0.17725,-0.30334 66.145827,66.145827 0 0 0 0.17622,-0.30489 66.145827,66.145827 0 0 0 0.17415,-0.30541 66.145827,66.145827 0 0 0 0.17312,-0.30644 66.145827,66.145827 0 0 0 0.17104,-0.30747 66.145827,66.145827 0 0 0 0.16899,-0.30851 66.145827,66.145827 0 0 0 0.16795,-0.30903 66.145827,66.145827 0 0 0 0.16639,-0.31005 66.145827,66.145827 0 0 0 0.16433,-0.3111 66.145827,66.145827 0 0 0 0.16279,-0.31161 66.145827,66.145827 0 0 0 0.16123,-0.31264 66.145827,66.145827 0 0 0 0.15968,-0.31367 66.145827,66.145827 0 0 0 0.15761,-0.3142 66.145827,66.145827 0 0 0 0.15658,-0.31522 66.145827,66.145827 0 0 0 0.15451,-0.31626 66.145827,66.145827 0 0 0 0.15245,-0.31678 66.145827,66.145827 0 0 0 0.15141,-0.31781 66.145827,66.145827 0 0 0 0.14934,-0.31833 66.145827,66.145827 0 0 0 0.1478,-0.31936 66.145827,66.145827 0 0 0 0.14573,-0.31987 66.145827,66.145827 0 0 0 0.14469,-0.32091 66.145827,66.145827 0 0 0 0.14263,-0.32143 66.145827,66.145827 0 0 0 0.14107,-0.32246 66.145827,66.145827 0 0 0 0.13901,-0.32298 66.145827,66.145827 0 0 0 0.13746,-0.32349 66.145827,66.145827 0 0 0 0.13591,-0.32453 66.145827,66.145827 0 0 0 0.13384,-0.32556 66.145827,66.145827 0 0 0 0.13229,-0.32608 66.145827,66.145827 0 0 0 0.13075,-0.3266 66.145827,66.145827 0 0 0 0.12867,-0.32711 66.145827,66.145827 0 0 0 0.12712,-0.32814 66.145827,66.145827 0 0 0 0.12506,-0.32867 66.145827,66.145827 0 0 0 0.12403,-0.32918 66.145827,66.145827 0 0 0 0.12143,-0.33021 66.145827,66.145827 0 0 0 0.12041,-0.33073 66.145827,66.145827 0 0 0 0.11834,-0.33124 66.145827,66.145827 0 0 0 0.11627,-0.33176 66.145827,66.145827 0 0 0 0.11472,-0.3328 66.145827,66.145827 0 0 0 0.11317,-0.3328 66.145827,66.145827 0 0 0 0.11111,-0.33383 66.145827,66.145827 0 0 0 0.10955,-0.33434 66.145827,66.145827 0 0 0 0.10801,-0.33487 66.145827,66.145827 0 0 0 0.10593,-0.33538 66.145827,66.145827 0 0 0 0.10387,-0.33641 66.145827,66.145827 0 0 0 0.10232,-0.33641 66.145827,66.145827 0 0 0 0.10077,-0.33694 66.145827,66.145827 0 0 0 0.0987,-0.33796 66.145827,66.145827 0 0 0 0.0966,-0.33796 66.145827,66.145827 0 0 0 0.0951,-0.33848 66.145827,66.145827 0 0 0 0.0935,-0.33952 66.145827,66.145827 0 0 0 0.0915,-0.33951 66.145827,66.145827 0 0 0 0.0899,-0.34003 66.145827,66.145827 0 0 0 0.0879,-0.34055 66.145827,66.145827 0 0 0 0.0863,-0.34107 66.145827,66.145827 0 0 0 0.0842,-0.34157 66.145827,66.145827 0 0 0 0.0822,-0.3421 66.145827,66.145827 0 0 0 0.0811,-0.34262 66.145827,66.145827 0 0 0 0.0785,-0.34261 66.145827,66.145827 0 0 0 0.077,-0.34313 66.145827,66.145827 0 0 0 0.0754,-0.34365 66.145827,66.145827 0 0 0 0.0734,-0.34417 66.145827,66.145827 0 0 0 0.0713,-0.34468 66.145827,66.145827 0 0 0 0.0698,-0.34468 66.145827,66.145827 0 0 0 0.0677,-0.3452 66.145827,66.145827 0 0 0 0.0661,-0.3452 66.145827,66.145827 0 0 0 0.0641,-0.34623 66.145827,66.145827 0 0 0 0.0625,-0.34623 66.145827,66.145827 0 0 0 0.0605,-0.34623 66.145827,66.145827 0 0 0 0.0584,-0.34675 66.145827,66.145827 0 0 0 0.0568,-0.34727 66.145827,66.145827 0 0 0 0.0553,-0.34778 66.145827,66.145827 0 0 0 0.0527,-0.34778 66.145827,66.145827 0 0 0 0.0517,-0.34779 66.145827,66.145827 0 0 0 0.0491,-0.3483 66.145827,66.145827 0 0 0 0.0476,-0.34881 66.145827,66.145827 0 0 0 0.046,-0.34882 66.145827,66.145827 0 0 0 0.0439,-0.34881 66.145827,66.145827 0 0 0 0.0419,-0.34934 66.145827,66.145827 0 0 0 0.0403,-0.34933 66.145827,66.145827 0 0 0 0.0382,-0.34985 66.145827,66.145827 0 0 0 0.0362,-0.34985 66.145827,66.145827 0 0 0 0.0346,-0.34985 66.145827,66.145827 0 0 0 0.0325,-0.35036 66.145827,66.145827 0 0 0 0.031,-0.35037 66.145827,66.145827 0 0 0 0.0289,-0.35088 66.145827,66.145827 0 0 0 0.0269,-0.35037 66.145827,66.145827 0 0 0 0.0253,-0.35088 66.145827,66.145827 0 0 0 0.0233,-0.3514 66.145827,66.145827 0 0 0 0.0217,-0.35088 66.145827,66.145827 0 0 0 0.0196,-0.3514 66.145827,66.145827 0 0 0 0.0176,-0.3514 66.145827,66.145827 0 0 0 0.016,-0.3514 66.145827,66.145827 0 0 0 0.0139,-0.3514 66.145827,66.145827 0 0 0 0.0124,-0.3514 66.145827,66.145827 0 0 0 0.0104,-0.35192 66.145827,66.145827 0 0 0 0.008,-0.3514 66.145827,66.145827 0 0 0 0.007,-0.35192 66.145827,66.145827 0 0 0 0.005,-0.35191 66.145827,66.145827 0 0 0 0.003,-0.3514 66.145827,66.145827 0 0 0 9.9e-4,-0.35187 v -0.12557 a 66.145827,66.145827 0 0 0 -0.002,-0.35192 66.145827,66.145827 0 0 0 -0.004,-0.3514 66.145827,66.145827 0 0 0 -0.005,-0.35192 66.145827,66.145827 0 0 0 -0.007,-0.35191 66.145827,66.145827 0 0 0 -0.009,-0.3514 66.145827,66.145827 0 0 0 -0.0108,-0.35192 66.145827,66.145827 0 0 0 -0.0129,-0.3514 66.145827,66.145827 0 0 0 -0.0145,-0.3514 66.145827,66.145827 0 0 0 -0.0165,-0.3514 66.145827,66.145827 0 0 0 -0.0186,-0.3514 66.145827,66.145827 0 0 0 -0.0202,-0.3514 66.145827,66.145827 0 0 0 -0.0222,-0.35088 66.145827,66.145827 0 0 0 -0.0243,-0.35088 66.145827,66.145827 0 0 0 -0.0258,-0.35089 66.145827,66.145827 0 0 0 -0.0279,-0.35088 66.145827,66.145827 0 0 0 -0.0295,-0.35036 66.145827,66.145827 0 0 0 -0.0315,-0.35037 66.145827,66.145827 0 0 0 -0.0336,-0.35037 66.145827,66.145827 0 0 0 -0.0351,-0.34985 66.145827,66.145827 0 0 0 -0.0367,-0.34985 66.145827,66.145827 0 0 0 -0.0393,-0.34933 66.145827,66.145827 0 0 0 -0.0408,-0.34985 66.145827,66.145827 0 0 0 -0.0424,-0.34882 66.145827,66.145827 0 0 0 -0.0444,-0.34933 66.145827,66.145827 0 0 0 -0.0465,-0.3483 66.145827,66.145827 0 0 0 -0.0481,-0.34881 66.145827,66.145827 0 0 0 -0.0501,-0.34778 66.145827,66.145827 0 0 0 -0.0522,-0.34831 66.145827,66.145827 0 0 0 -0.0537,-0.34726 66.145827,66.145827 0 0 0 -0.0558,-0.34778 66.145827,66.145827 0 0 0 -0.0574,-0.34675 66.145827,66.145827 0 0 0 -0.0594,-0.34675 66.145827,66.145827 0 0 0 -0.061,-0.34675 66.145827,66.145827 0 0 0 -0.063,-0.34571 66.145827,66.145827 0 0 0 -0.0646,-0.34572 66.145827,66.145827 0 0 0 -0.0667,-0.34571 66.145827,66.145827 0 0 0 -0.0687,-0.3452 66.145827,66.145827 0 0 0 -0.0703,-0.34468 66.145827,66.145827 0 0 0 -0.0723,-0.34417 66.145827,66.145827 0 0 0 -0.0739,-0.34365 66.145827,66.145827 0 0 0 -0.076,-0.34365 66.145827,66.145827 0 0 0 -0.0775,-0.34313 66.145827,66.145827 0 0 0 -0.0796,-0.34261 66.145827,66.145827 0 0 0 -0.0811,-0.3421 66.145827,66.145827 0 0 0 -0.0832,-0.3421 66.145827,66.145827 0 0 0 -0.0847,-0.34106 66.145827,66.145827 0 0 0 -0.0868,-0.34107 66.145827,66.145827 0 0 0 -0.0889,-0.34055 66.145827,66.145827 0 0 0 -0.0904,-0.34003 66.145827,66.145827 0 0 0 -0.092,-0.33951 66.145827,66.145827 0 0 0 -0.094,-0.339 66.145827,66.145827 0 0 0 -0.0956,-0.33848 66.145827,66.145827 0 0 0 -0.0977,-0.33796 66.145827,66.145827 0 0 0 -0.0992,-0.33745 66.145827,66.145827 0 0 0 -0.10129,-0.33693 66.145827,66.145827 0 0 0 -0.10283,-0.33641 66.145827,66.145827 0 0 0 -0.10491,-0.3359 66.145827,66.145827 0 0 0 -0.10645,-0.33486 66.145827,66.145827 0 0 0 -0.10852,-0.33487 66.145827,66.145827 0 0 0 -0.11007,-0.33434 66.145827,66.145827 0 0 0 -0.11214,-0.33332 66.145827,66.145827 0 0 0 -0.11317,-0.33279 66.145827,66.145827 0 0 0 -0.11576,-0.33228 66.145827,66.145827 0 0 0 -0.1173,-0.33176 66.145827,66.145827 0 0 0 -0.11886,-0.33125 66.145827,66.145827 0 0 0 -0.1204,-0.33021 66.145827,66.145827 0 0 0 -0.12248,-0.3297 66.145827,66.145827 0 0 0 -0.12454,-0.32918 66.145827,66.145827 0 0 0 -0.12557,-0.32866 66.145827,66.145827 0 0 0 -0.12816,-0.32763 66.145827,66.145827 0 0 0 -0.12919,-0.32711 66.145827,66.145827 0 0 0 -0.13126,-0.3266 66.145827,66.145827 0 0 0 -0.13281,-0.32555 66.145827,66.145827 0 0 0 -0.13487,-0.32505 66.145827,66.145827 0 0 0 -0.13643,-0.32401 66.145827,66.145827 0 0 0 -0.13797,-0.32401 66.145827,66.145827 0 0 0 -0.13953,-0.32246 66.145827,66.145827 0 0 0 -0.14159,-0.32195 66.145827,66.145827 0 0 0 -0.14366,-0.32143 66.145827,66.145827 0 0 0 -0.1447,-0.32039 66.145827,66.145827 0 0 0 -0.14676,-0.31988 66.145827,66.145827 0 0 0 -0.14831,-0.31884 66.145827,66.145827 0 0 0 -0.14986,-0.31833 66.145827,66.145827 0 0 0 -0.15193,-0.31729 66.145827,66.145827 0 0 0 -0.15348,-0.31678 66.145827,66.145827 0 0 0 -0.15503,-0.31574 66.145827,66.145827 0 0 0 -0.15658,-0.31471 66.145827,66.145827 0 0 0 -0.15865,-0.31419 66.145827,66.145827 0 0 0 -0.16019,-0.31316 66.145827,66.145827 0 0 0 -0.16175,-0.31264 66.145827,66.145827 0 0 0 -0.1633,-0.3111 66.145827,66.145827 0 0 0 -0.16536,-0.31109 66.145827,66.145827 0 0 0 -0.1664,-0.30954 66.145827,66.145827 0 0 0 -0.16847,-0.30902 66.145827,66.145827 0 0 0 -0.17001,-0.308 66.145827,66.145827 0 0 0 -0.17157,-0.30695 66.145827,66.145827 0 0 0 -0.17363,-0.30593 66.145827,66.145827 0 0 0 -0.17467,-0.3054 66.145827,66.145827 0 0 0 -0.17673,-0.30438 66.145827,66.145827 0 0 0 -0.17828,-0.30334 66.145827,66.145827 0 0 0 -0.17984,-0.30231 66.145827,66.145827 0 0 0 -0.18138,-0.30127 66.145827,66.145827 0 0 0 -0.18293,-0.30024 66.145827,66.145827 0 0 0 -0.18449,-0.29973 66.145827,66.145827 0 0 0 -0.18604,-0.29868 66.145827,66.145827 0 0 0 -0.18758,-0.29714 66.145827,66.145827 0 0 0 -0.18965,-0.29663 66.145827,66.145827 0 0 0 -0.19069,-0.29559 66.145827,66.145827 0 0 0 -0.19275,-0.29455 66.145827,66.145827 0 0 0 -0.19379,-0.29301 66.145827,66.145827 0 0 0 -0.19585,-0.29248 66.145827,66.145827 0 0 0 -0.19689,-0.29146 66.145827,66.145827 0 0 0 -0.19896,-0.29042 66.145827,66.145827 0 0 0 -0.19998,-0.28887 66.145827,66.145827 0 0 0 -0.20206,-0.28836 66.145827,66.145827 0 0 0 -0.20309,-0.28732 66.145827,66.145827 0 0 0 -0.20463,-0.28577 66.145827,66.145827 0 0 0 -0.20671,-0.28474 66.145827,66.145827 0 0 0 -0.20774,-0.28422 66.145827,66.145827 0 0 0 -0.20929,-0.28267 66.145827,66.145827 0 0 0 -0.21084,-0.28163 66.145827,66.145827 0 0 0 -0.21239,-0.28009 66.145827,66.145827 0 0 0 -0.21394,-0.27957 66.145827,66.145827 0 0 0 -0.21497,-0.27802 66.145827,66.145827 0 0 0 -0.21704,-0.27698 66.145827,66.145827 0 0 0 -0.21808,-0.27596 66.145827,66.145827 0 0 0 -0.22014,-0.27492 66.145827,66.145827 0 0 0 -0.22118,-0.27336 66.145827,66.145827 0 0 0 -0.2222,-0.27234 66.145827,66.145827 0 0 0 -0.22428,-0.2713 66.145827,66.145827 0 0 0 -0.22582,-0.26975 66.145827,66.145827 0 0 0 -0.22687,-0.26872 66.145827,66.145827 0 0 0 -0.22841,-0.26768 66.145827,66.145827 0 0 0 -0.22944,-0.26665 66.145827,66.145827 0 0 0 -0.23151,-0.2651 66.145827,66.145827 0 0 0 -0.23254,-0.26355 66.145827,66.145827 0 0 0 -0.2341,-0.26304 66.145827,66.145827 0 0 0 -0.23512,-0.26096 66.145827,66.145827 0 0 0 -0.2372,-0.26045 66.145827,66.145827 0 0 0 -0.23823,-0.2589 66.145827,66.145827 0 0 0 -0.23926,-0.25735 66.145827,66.145827 0 0 0 -0.24081,-0.25631 66.145827,66.145827 0 0 0 -0.24236,-0.25528 66.145827,66.145827 0 0 0 -0.24392,-0.25374 66.145827,66.145827 0 0 0 -0.24494,-0.25218 66.145827,66.145827 0 0 0 -0.24598,-0.25114 66.145827,66.145827 0 0 0 -0.24805,-0.25012 66.145827,66.145827 0 0 0 -0.24908,-0.24856 66.145827,66.145827 0 0 0 -0.25011,-0.24701 66.145827,66.145827 0 0 0 -0.25167,-0.24598 66.145827,66.145827 0 0 0 -0.25269,-0.24443 66.145827,66.145827 0 0 0 -0.25425,-0.24288 66.145827,66.145827 0 0 0 -0.2558,-0.24185 66.145827,66.145827 0 0 0 -0.25683,-0.24081 66.145827,66.145827 0 0 0 -0.25787,-0.23875 66.145827,66.145827 0 0 0 -0.25942,-0.23771 66.145827,66.145827 0 0 0 -0.26044,-0.23668 66.145827,66.145827 0 0 0 -0.262,-0.23461 66.145827,66.145827 0 0 0 -0.26304,-0.23357 66.145827,66.145827 0 0 0 -0.26406,-0.23203 66.145827,66.145827 0 0 0 -0.26562,-0.231 66.145827,66.145827 0 0 0 -0.26665,-0.22892 66.145827,66.145827 0 0 0 -0.2682,-0.2279 66.145827,66.145827 0 0 0 -0.26923,-0.22685 66.145827,66.145827 0 0 0 -0.27027,-0.2248 66.145827,66.145827 0 0 0 -0.27182,-0.22376 66.145827,66.145827 0 0 0 -0.27285,-0.2222 66.145827,66.145827 0 0 0 -0.27389,-0.22066 66.145827,66.145827 0 0 0 -0.27492,-0.21911 66.145827,66.145827 0 0 0 -0.27646,-0.21756 66.145827,66.145827 0 0 0 -0.27751,-0.21652 66.145827,66.145827 0 0 0 -0.27853,-0.21446 66.145827,66.145827 0 0 0 -0.27957,-0.21342 66.145827,66.145827 0 0 0 -0.28112,-0.21188 66.145827,66.145827 0 0 0 -0.28164,-0.21032 66.145827,66.145827 0 0 0 -0.28319,-0.20877 66.145827,66.145827 0 0 0 -0.28422,-0.20723 66.145827,66.145827 0 0 0 -0.28525,-0.20618 66.145827,66.145827 0 0 0 -0.28629,-0.20413 66.145827,66.145827 0 0 0 -0.28784,-0.20257 66.145827,66.145827 0 0 0 -0.28835,-0.20154 66.145827,66.145827 0 0 0 -0.2899,-0.19947 66.145827,66.145827 0 0 0 -0.29043,-0.19792 66.145827,66.145827 0 0 0 -0.29197,-0.19689 66.145827,66.145827 0 0 0 -0.29249,-0.19482 66.145827,66.145827 0 0 0 -0.29403,-0.19378 66.145827,66.145827 0 0 0 -0.29456,-0.19172 66.145827,66.145827 0 0 0 -0.29611,-0.19017 66.145827,66.145827 0 0 0 -0.29662,-0.18914 66.145827,66.145827 0 0 0 -0.29766,-0.18707 66.145827,66.145827 0 0 0 -0.2992,-0.18551 66.145827,66.145827 0 0 0 -0.29973,-0.18397 66.145827,66.145827 0 0 0 -0.30075,-0.18242 66.145827,66.145827 0 0 0 -0.301788,-0.18087 66.145827,66.145827 0 0 0 -0.30283,-0.17931 66.145827,66.145827 0 0 0 -0.30333,-0.17725 66.145827,66.145827 0 0 0 -0.30489,-0.17622 66.145827,66.145827 0 0 0 -0.30541,-0.17415 66.145827,66.145827 0 0 0 -0.30644,-0.1726 66.145827,66.145827 0 0 0 -0.30747,-0.17157 66.145827,66.145827 0 0 0 -0.30851,-0.16898 66.145827,66.145827 0 0 0 -0.30903,-0.16795 66.145827,66.145827 0 0 0 -0.31005,-0.16639 66.145827,66.145827 0 0 0 -0.3111,-0.16433 66.145827,66.145827 0 0 0 -0.31161,-0.16279 66.145827,66.145827 0 0 0 -0.31264,-0.16123 66.145827,66.145827 0 0 0 -0.31367,-0.15968 66.145827,66.145827 0 0 0 -0.3142,-0.15761 66.145827,66.145827 0 0 0 -0.31522,-0.15658 66.145827,66.145827 0 0 0 -0.31626,-0.15451 66.145827,66.145827 0 0 0 -0.31678,-0.15245 66.145827,66.145827 0 0 0 -0.31781,-0.15141 66.145827,66.145827 0 0 0 -0.31833,-0.14934 66.145827,66.145827 0 0 0 -0.31936,-0.1478 66.145827,66.145827 0 0 0 -0.31987,-0.14573 66.145827,66.145827 0 0 0 -0.32091,-0.14469 66.145827,66.145827 0 0 0 -0.32143,-0.14263 66.145827,66.145827 0 0 0 -0.32246,-0.14056 66.145827,66.145827 0 0 0 -0.32298,-0.13952 66.145827,66.145827 0 0 0 -0.32349,-0.13746 66.145827,66.145827 0 0 0 -0.32453,-0.13591 66.145827,66.145827 0 0 0 -0.32556,-0.13384 66.145827,66.145827 0 0 0 -0.32608,-0.13229 66.145827,66.145827 0 0 0 -0.3266,-0.13075 66.145827,66.145827 0 0 0 -0.32711,-0.12867 66.145827,66.145827 0 0 0 -0.32814,-0.12712 66.145827,66.145827 0 0 0 -0.32867,-0.12506 66.145827,66.145827 0 0 0 -0.32918,-0.12403 66.145827,66.145827 0 0 0 -0.33021,-0.12143 66.145827,66.145827 0 0 0 -0.33073,-0.12041 66.145827,66.145827 0 0 0 -0.33124,-0.11834 66.145827,66.145827 0 0 0 -0.33176,-0.11627 66.145827,66.145827 0 0 0 -0.3328,-0.11472 66.145827,66.145827 0 0 0 -0.3328,-0.11317 66.145827,66.145827 0 0 0 -0.33383,-0.11111 66.145827,66.145827 0 0 0 -0.33434,-0.10955 66.145827,66.145827 0 0 0 -0.33487,-0.10801 66.145827,66.145827 0 0 0 -0.33538,-0.10593 66.145827,66.145827 0 0 0 -0.33641,-0.10387 66.145827,66.145827 0 0 0 -0.33641,-0.10232 66.145827,66.145827 0 0 0 -0.33694,-0.10077 66.145827,66.145827 0 0 0 -0.33791,-0.0987 66.145827,66.145827 0 0 0 -0.33796,-0.0966 66.145827,66.145827 0 0 0 -0.33848,-0.0951 66.145827,66.145827 0 0 0 -0.33952,-0.0935 66.145827,66.145827 0 0 0 -0.33951,-0.0915 66.145827,66.145827 0 0 0 -0.34003,-0.0899 66.145827,66.145827 0 0 0 -0.34055,-0.0879 66.145827,66.145827 0 0 0 -0.34107,-0.0863 66.145827,66.145827 0 0 0 -0.34158,-0.0842 66.145827,66.145827 0 0 0 -0.3421,-0.0822 66.145827,66.145827 0 0 0 -0.34261,-0.0806 66.145827,66.145827 0 0 0 -0.34261,-0.0791 66.145827,66.145827 0 0 0 -0.34314,-0.077 66.145827,66.145827 0 0 0 -0.34365,-0.0754 66.145827,66.145827 0 0 0 -0.34416,-0.0734 66.145827,66.145827 0 0 0 -0.34468,-0.0713 66.145827,66.145827 0 0 0 -0.34468,-0.0698 66.145827,66.145827 0 0 0 -0.3452,-0.0677 66.145827,66.145827 0 0 0 -0.3452,-0.0661 66.145827,66.145827 0 0 0 -0.34623,-0.0641 66.145827,66.145827 0 0 0 -0.34623,-0.0625 66.145827,66.145827 0 0 0 -0.34624,-0.0605 66.145827,66.145827 0 0 0 -0.34675,-0.0584 66.145827,66.145827 0 0 0 -0.34726,-0.0568 66.145827,66.145827 0 0 0 -0.34778,-0.0553 66.145827,66.145827 0 0 0 -0.34779,-0.0527 66.145827,66.145827 0 0 0 -0.34778,-0.0517 66.145827,66.145827 0 0 0 -0.3483,-0.0491 66.145827,66.145827 0 0 0 -0.34881,-0.0476 66.145827,66.145827 0 0 0 -0.34882,-0.046 66.145827,66.145827 0 0 0 -0.34881,-0.0439 66.145827,66.145827 0 0 0 -0.34934,-0.0419 66.145827,66.145827 0 0 0 -0.34933,-0.0403 66.145827,66.145827 0 0 0 -0.34985,-0.0382 66.145827,66.145827 0 0 0 -0.34985,-0.0362 66.145827,66.145827 0 0 0 -0.34985,-0.0346 66.145827,66.145827 0 0 0 -0.35036,-0.0326 66.145827,66.145827 0 0 0 -0.35037,-0.031 66.145827,66.145827 0 0 0 -0.35088,-0.0289 66.145827,66.145827 0 0 0 -0.35037,-0.0269 66.145827,66.145827 0 0 0 -0.35088,-0.0253 66.145827,66.145827 0 0 0 -0.3514,-0.0233 66.145827,66.145827 0 0 0 -0.35089,-0.0217 66.145827,66.145827 0 0 0 -0.3514,-0.0196 66.145827,66.145827 0 0 0 -0.35139,-0.0176 66.145827,66.145827 0 0 0 -0.35141,-0.016 66.145827,66.145827 0 0 0 -0.35139,-0.0139 66.145827,66.145827 0 0 0 -0.35141,-0.0124 66.145827,66.145827 0 0 0 -0.35191,-0.0103 66.145827,66.145827 0 0 0 -0.3514,-0.008 66.145827,66.145827 0 0 0 -0.35192,-0.007 66.145827,66.145827 0 0 0 -0.35191,-0.005 66.145827,66.145827 0 0 0 -0.3514,-0.003 66.145827,66.145827 0 0 0 -0.35192,-0.001 z"
         style="fill:url(#linearGradient1248);fill-opacity:1;stroke-width:1.32292;stroke-linecap:round"
         id="path1237" />
      <path
         transform="matrix(0.26458332,0,0,0.26458332,0,164.70829)"
         d="m 276.20312,498.62109 a 249.99999,249.99999 0 0 0 0.8086,-0.084 249.99999,249.99999 0 0 0 1.32031,-0.14844 249.99999,249.99999 0 0 0 1.32031,-0.15429 249.99999,249.99999 0 0 0 0.002,0 249.99999,249.99999 0 0 0 1.31836,-0.16016 249.99999,249.99999 0 0 0 1.32031,-0.16797 249.99999,249.99999 0 0 0 1.31641,-0.17578 249.99999,249.99999 0 0 0 1.31835,-0.18164 249.99999,249.99999 0 0 0 1.31446,-0.18945 249.99999,249.99999 0 0 0 1.3164,-0.19727 249.99999,249.99999 0 0 0 1.3125,-0.20313 249.99999,249.99999 0 0 0 1.3125,-0.21093 249.99999,249.99999 0 0 0 0.002,0 249.99999,249.99999 0 0 0 1.31054,-0.2168 249.99999,249.99999 0 0 0 1.31055,-0.22461 249.99999,249.99999 0 0 0 1.31055,-0.23047 249.99999,249.99999 0 0 0 1.30664,-0.23828 249.99999,249.99999 0 0 0 1.30664,-0.24414 249.99999,249.99999 0 0 0 1.30664,-0.25195 249.99999,249.99999 0 0 0 1.30469,-0.25977 249.99999,249.99999 0 0 0 1.30273,-0.26562 249.99999,249.99999 0 0 0 1.30078,-0.27344 249.99999,249.99999 0 0 0 1.29883,-0.2793 249.99999,249.99999 0 0 0 1.29883,-0.28711 249.99999,249.99999 0 0 0 1.29687,-0.29297 249.99999,249.99999 0 0 0 1.29493,-0.30078 249.99999,249.99999 0 0 0 1.29296,-0.30664 249.99999,249.99999 0 0 0 1.29297,-0.3125 249.99999,249.99999 0 0 0 0,-0.002 249.99999,249.99999 0 0 0 1.28907,-0.32031 249.99999,249.99999 0 0 0 1.28906,-0.32618 249.99999,249.99999 0 0 0 1.28711,-0.33593 249.99999,249.99999 0 0 0 0,-0.002 249.99999,249.99999 0 0 0 1.28515,-0.33984 249.99999,249.99999 0 0 0 1.28321,-0.34766 249.99999,249.99999 0 0 0 1.28125,-0.35546 249.99999,249.99999 0 0 0 1.27929,-0.36133 249.99999,249.99999 0 0 0 1.27735,-0.36914 249.99999,249.99999 0 0 0 1.27539,-0.375 249.99999,249.99999 0 0 0 1.27344,-0.38282 249.99999,249.99999 0 0 0 1.27148,-0.38867 249.99999,249.99999 0 0 0 1.26953,-0.39648 249.99999,249.99999 0 0 0 1.26563,-0.40235 249.99999,249.99999 0 0 0 1.26562,-0.41015 249.99999,249.99999 0 0 0 1.26367,-0.41602 249.99999,249.99999 0 0 0 1.25977,-0.42383 249.99999,249.99999 0 0 0 1.25781,-0.42773 249.99999,249.99999 0 0 0 1.25586,-0.4375 249.99999,249.99999 0 0 0 1.25391,-0.44336 249.99999,249.99999 0 0 0 1.25195,-0.44922 249.99999,249.99999 0 0 0 1.24805,-0.45508 249.99999,249.99999 0 0 0 1.24609,-0.46289 249.99999,249.99999 0 0 0 1.24414,-0.4707 249.99999,249.99999 0 0 0 1.24219,-0.47461 249.99999,249.99999 0 0 0 1.23828,-0.48438 249.99999,249.99999 0 0 0 1.23633,-0.48828 249.99999,249.99999 0 0 0 1.23437,-0.49609 249.99999,249.99999 0 0 0 1.23047,-0.50195 249.99999,249.99999 0 0 0 1.22852,-0.50977 249.99999,249.99999 0 0 0 1.22461,-0.51562 249.99999,249.99999 0 0 0 1.22461,-0.52149 249.99999,249.99999 0 0 0 1.21875,-0.52734 249.99999,249.99999 0 0 0 1.21679,-0.53516 249.99999,249.99999 0 0 0 1.21485,-0.54297 249.99999,249.99999 0 0 0 1.21093,-0.54687 249.99999,249.99999 0 0 0 1.20899,-0.55469 249.99999,249.99999 0 0 0 1.20508,-0.56055 249.99999,249.99999 0 0 0 1.20312,-0.5664 249.99999,249.99999 0 0 0 1.19922,-0.57422 249.99999,249.99999 0 0 0 1.19727,-0.58008 249.99999,249.99999 0 0 0 1.19336,-0.58594 249.99999,249.99999 0 0 0 1.18945,-0.59179 249.99999,249.99999 0 0 0 1.1875,-0.59961 249.99999,249.99999 0 0 0 1.18359,-0.60547 249.99999,249.99999 0 0 0 1.18164,-0.61133 249.99999,249.99999 0 0 0 1.17578,-0.61719 249.99999,249.99999 0 0 0 1.17383,-0.625 249.99999,249.99999 0 0 0 0.002,0 249.99999,249.99999 0 0 0 1.16992,-0.6289 249.99999,249.99999 0 0 0 1.16797,-0.63672 249.99999,249.99999 0 0 0 1.16406,-0.64258 249.99999,249.99999 0 0 0 1.16015,-0.64844 249.99999,249.99999 0 0 0 1.15626,-0.65625 249.99999,249.99999 0 0 0 1.15429,-0.66015 249.99999,249.99999 0 0 0 1.15039,-0.66797 249.99999,249.99999 0 0 0 1.14649,-0.67383 249.99999,249.99999 0 0 0 1.14257,-0.67969 249.99999,249.99999 0 0 0 1.13868,-0.68555 249.99999,249.99999 0 0 0 1.13476,-0.6914 249.99999,249.99999 0 0 0 1.13282,-0.69727 249.99999,249.99999 0 0 0 1.1289,-0.70312 249.99999,249.99999 0 0 0 1.12305,-0.70899 249.99999,249.99999 0 0 0 1.12109,-0.71679 249.99999,249.99999 0 0 0 1.11719,-0.72071 249.99999,249.99999 0 0 0 1.11328,-0.72851 249.99999,249.99999 0 0 0 1.10742,-0.73242 249.99999,249.99999 0 0 0 1.10547,-0.74024 249.99999,249.99999 0 0 0 1.10156,-0.74414 249.99999,249.99999 0 0 0 1.09766,-0.75195 249.99999,249.99999 0 0 0 1.0918,-0.75586 249.99999,249.99999 0 0 0 1.08984,-0.76367 249.99999,249.99999 0 0 0 1.08594,-0.76758 249.99999,249.99999 0 0 0 1.08008,-0.77344 249.99999,249.99999 0 0 0 1.07617,-0.78125 249.99999,249.99999 0 0 0 1.07422,-0.78516 249.99999,249.99999 0 0 0 1.06836,-0.79101 249.99999,249.99999 0 0 0 1.06445,-0.79688 249.99999,249.99999 0 0 0 1.05859,-0.80273 249.99999,249.99999 0 0 0 1.05664,-0.80859 249.99999,249.99999 0 0 0 1.05079,-0.8125 249.99999,249.99999 0 0 0 1.04687,-0.82032 249.99999,249.99999 0 0 0 1.04297,-0.82422 249.99999,249.99999 0 0 0 1.03906,-0.83203 249.99999,249.99999 0 0 0 1.0332,-0.83593 249.99999,249.99999 0 0 0 1.0293,-0.83985 249.99999,249.99999 0 0 0 1.02539,-0.84765 249.99999,249.99999 0 0 0 1.01953,-0.85352 249.99999,249.99999 0 0 0 1.01563,-0.85742 249.99999,249.99999 0 0 0 1.01172,-0.86328 249.99999,249.99999 0 0 0 1.00781,-0.86719 249.99999,249.99999 0 0 0 1.00195,-0.875 249.99999,249.99999 0 0 0 0.9961,-0.87891 249.99999,249.99999 0 0 0 0.99414,-0.88476 249.99999,249.99999 0 0 0 0.98633,-0.88867 249.99999,249.99999 0 0 0 0.98437,-0.89649 249.99999,249.99999 0 0 0 0.97852,-0.90039 249.99999,249.99999 0 0 0 0.97265,-0.9043 249.99999,249.99999 0 0 0 0.96875,-0.91015 249.99999,249.99999 0 0 0 0.96485,-0.91602 249.99999,249.99999 0 0 0 0.95898,-0.92187 249.99999,249.99999 0 0 0 0.95312,-0.92578 249.99999,249.99999 0 0 0 0.94922,-0.92969 249.99999,249.99999 0 0 0 0.94532,-0.9375 249.99999,249.99999 0 0 0 0.93945,-0.94141 249.99999,249.99999 0 0 0 0.93359,-0.94531 249.99999,249.99999 0 0 0 0.92969,-0.95117 249.99999,249.99999 0 0 0 0.92383,-0.95508 249.99999,249.99999 0 0 0 0.91797,-0.96094 249.99999,249.99999 0 0 0 0.91406,-0.96679 249.99999,249.99999 0 0 0 0.91016,-0.97071 249.99999,249.99999 0 0 0 0.90234,-0.97461 249.99999,249.99999 0 0 0 0.89844,-0.98047 249.99999,249.99999 0 0 0 0.89453,-0.98437 249.99999,249.99999 0 0 0 0.88672,-0.99024 249.99999,249.99999 0 0 0 0.88281,-0.99414 249.99999,249.99999 0 0 0 0.87695,-0.99804 249.99999,249.99999 0 0 0 0.87305,-1.00391 249.99999,249.99999 0 0 0 0.86523,-1.00781 249.99999,249.99999 0 0 0 0.86133,-1.01367 249.99999,249.99999 0 0 0 0.85742,-1.01758 249.99999,249.99999 0 0 0 0.84961,-1.02149 249.99999,249.99999 0 0 0 0.84571,-1.02734 249.99999,249.99999 0 0 0 0.83984,-1.03125 249.99999,249.99999 0 0 0 0.83399,-1.03516 249.99999,249.99999 0 0 0 0.82812,-1.03906 249.99999,249.99999 0 0 0 0.82227,-1.04492 249.99999,249.99999 0 0 0 0.81835,-1.04883 249.99999,249.99999 0 0 0 0.81055,-1.05273 249.99999,249.99999 0 0 0 0.80664,-1.05664 249.99999,249.99999 0 0 0 0.80078,-1.0625 249.99999,249.99999 0 0 0 0.79493,-1.06446 249.99999,249.99999 0 0 0 0.78906,-1.07031 249.99999,249.99999 0 0 0 0.7832,-1.07422 249.99999,249.99999 0 0 0 0.7793,-1.07812 249.99999,249.99999 0 0 0 0.77148,-1.08203 249.99999,249.99999 0 0 0 0.76563,-1.08789 249.99999,249.99999 0 0 0 0.76172,-1.08985 249.99999,249.99999 0 0 0 0.7539,-1.0957 249.99999,249.99999 0 0 0 0.74805,-1.09766 249.99999,249.99999 0 0 0 0.74414,-1.10351 249.99999,249.99999 0 0 0 0.73633,-1.10547 249.99999,249.99999 0 0 0 0.73242,-1.11133 249.99999,249.99999 0 0 0 0.72461,-1.11328 249.99999,249.99999 0 0 0 0.71875,-1.11914 249.99999,249.99999 0 0 0 0.71484,-1.1211 249.99999,249.99999 0 0 0 0.70703,-1.125 249.99999,249.99999 0 0 0 0.70118,-1.13086 249.99999,249.99999 0 0 0 0.69531,-1.13281 249.99999,249.99999 0 0 0 0.68945,-1.13672 249.99999,249.99999 0 0 0 0.6836,-1.14062 249.99999,249.99999 0 0 0 0.67773,-1.14453 249.99999,249.99999 0 0 0 0.66992,-1.14649 249.99999,249.99999 0 0 0 0.66602,-1.15234 249.99999,249.99999 0 0 0 0.6582,-1.1543 249.99999,249.99999 0 0 0 0.6543,-1.1582 249.99999,249.99999 0 0 0 0.64648,-1.16211 249.99999,249.99999 0 0 0 0.63867,-1.16602 249.99999,249.99999 0 0 0 0.63477,-1.16796 249.99999,249.99999 0 0 0 0.62891,-1.17188 249.99999,249.99999 0 0 0 0.62109,-1.17578 249.99999,249.99999 0 0 0 0.61523,-1.17774 249.99999,249.99999 0 0 0 0.60938,-1.18164 249.99999,249.99999 0 0 0 0.60351,-1.18554 249.99999,249.99999 0 0 0 0.59571,-1.1875 249.99999,249.99999 0 0 0 0.59179,-1.19141 249.99999,249.99999 0 0 0 0.58399,-1.19531 249.99999,249.99999 0 0 0 0.57617,-1.19727 249.99999,249.99999 0 0 0 0.57227,-1.20117 249.99999,249.99999 0 0 0 0.56445,-1.20312 249.99999,249.99999 0 0 0 0.55859,-1.20704 249.99999,249.99999 0 0 0 0.55078,-1.20898 249.99999,249.99999 0 0 0 0.54688,-1.21289 249.99999,249.99999 0 0 0 0.53906,-1.21484 249.99999,249.99999 0 0 0 0.5332,-1.21875 249.99999,249.99999 0 0 0 0.5254,-1.22071 249.99999,249.99999 0 0 0 0.51953,-1.22265 249.99999,249.99999 0 0 0 0.51367,-1.22657 249.99999,249.99999 0 0 0 0.50586,-1.23047 249.99999,249.99999 0 0 0 0.5,-1.23242 249.99999,249.99999 0 0 0 0.49414,-1.23437 249.99999,249.99999 0 0 0 0.48633,-1.23633 249.99999,249.99999 0 0 0 0.48047,-1.24023 249.99999,249.99999 0 0 0 0.47265,-1.24219 249.99999,249.99999 0 0 0 0.46875,-1.24414 249.99999,249.99999 0 0 0 0.45899,-1.24805 249.99999,249.99999 0 0 0 0.45507,-1.25 249.99999,249.99999 0 0 0 0.44727,-1.25195 249.99999,249.99999 0 0 0 0.43945,-1.25391 249.99999,249.99999 0 0 0 0.4336,-1.25781 249.99999,249.99999 0 0 0 0.42773,-1.25781 249.99999,249.99999 0 0 0 0.41992,-1.26172 249.99999,249.99999 0 0 0 0.41407,-1.26367 249.99999,249.99999 0 0 0 0.4082,-1.26563 249.99999,249.99999 0 0 0 0.40039,-1.26758 249.99999,249.99999 0 0 0 0.39258,-1.27148 L 409.74414,186.09961 392.41016,181.70703 364.77734,154.07227 251.39258,184.45312 H 158.78906 105.5293 l -9.962894,37.18555 v 39.63281 48.36329 l -2.539062,5.80859 z"
         style="fill:#800034;fill-opacity:1;stroke:none;stroke-width:0.999999px;stroke-linecap:butt;stroke-linejoin:miter;stroke-opacity:1"
         id="path1277" />
      <path
         id="path1267"
         d="m 35.395197,205.379 9.170672,9.17067 5.94106,-1.5919 -5.360096,-5.3601 z"
         style="fill:#800034;fill-opacity:1;stroke:none;stroke-width:0.264583px;stroke-linecap:butt;stroke-linejoin:miter;stroke-opacity:1" />
      <path
         id="path1269"
         d="m 56.613793,192.66554 5.396991,9.34787 v 9.72516 l -14.373825,-8.29873 z"
         style="fill:#800034;fill-opacity:1;stroke:none;stroke-width:0.264583px;stroke-linecap:butt;stroke-linejoin:miter;stroke-opacity:1" />
      <path
         id="path1273"
         d="m 70.703788,192.66554 9.960456,9.96046 -7.933448,7.93345 -6.165464,-6.16547 z"
         style="fill:#800034;fill-opacity:1;stroke:none;stroke-width:0.264583px;stroke-linecap:butt;stroke-linejoin:miter;stroke-opacity:1" />
      <g
         style="fill:#ffffff"
         transform="matrix(3.0252339,0,0,3.0252339,-139.83354,-1176.4475)"
         id="g1177">
        <path
           d="m 68.087642,451.70201 c -3.762828,0.88761 -2.393193,5.48055 -2.393193,5.48055 -1.626291,-2.00201 -0.758203,-4.6182 -0.758203,-4.6182 -4.403067,0.96123 -7.013869,4.20247 -7.013869,4.20247 0.994582,0.99458 4.118141,2.37763 4.118141,2.37763 -1.41988,0 -4.953672,-1.32747 -4.953672,-1.32747 -1.445962,0.0241 -2.728441,1.32747 -2.728441,1.32747 -2.563452,6.49777 0,11.76689 0,11.76689 4.208923,4.01423 8.87499,3.97859 8.87499,3.97859 -0.823262,0.37147 -4.462637,-0.0277 -4.462637,-0.0277 0,0 3.334262,3.83499 9.304486,3.81108 5.970218,-0.0239 9.273819,-3.81784 9.273819,-3.81784 -1.928399,0.49001 -4.52328,0.0329 -4.52328,0.0329 4.997337,-0.14727 8.978926,-3.96777 8.978926,-3.96777 2.110793,-5.20779 0.670949,-9.7635 0.670949,-9.7635 L 82.058115,459.599 c -0.417478,-1.55806 -3.065719,-1.775 -3.065719,-1.775 -1.169212,0.76576 -5.004853,1.295 -5.004853,1.295 2.210808,-0.69121 4.137758,-2.32104 4.137758,-2.32104 -2.819368,-3.57281 -6.82945,-4.19773 -6.82945,-4.19773 0.985245,2.64435 -0.877916,4.64909 -0.877916,4.64909 1.09631,-5.03622 -2.330293,-5.54729 -2.330293,-5.54729 z m -12.27123,8.33435 c 12.016192,6.16238 24.487225,0.0976 24.487225,0.0976 2.429827,4.20859 0,9.99369 0,9.99369 -1.616126,1.57881 -5.06753,2.75934 -5.06753,2.75934 0,0 -1.146241,0.49962 -2.349453,0.50704 -1.203208,0.007 -2.057041,-0.47098 -2.057041,-0.47098 0,0 -1.200846,-0.92097 -2.854246,-0.92097 -1.065932,-0.0545 -2.669148,0.92097 -2.669148,0.92097 -0.81775,0.76205 -3.30245,0.28273 -3.30245,0.28273 -4.385047,-1.06424 -6.187357,-3.14644 -6.187357,-3.14644 -2.285134,-3.95797 0,-10.023 0,-10.023 z"
           style="fill:#ffffff;stroke:none;stroke-width:0.115432px;stroke-linecap:butt;stroke-linejoin:miter;stroke-opacity:1"
           id="path1170" />
        <path
           id="path1173"
           d="m 60.596526,462.89647 c 0,0 3.030156,0.60758 3.576852,0.55012 l -2.283611,8.75769 c 0,0 -1.60794,-0.38014 -3.427754,-1.40621 z"
           style="fill:#ffffff;fill-opacity:1;stroke:none;stroke-width:0.115432px;stroke-linecap:butt;stroke-linejoin:miter;stroke-opacity:1" />
        <path
           id="path1175"
           d="m 62.964778,472.33206 2.339699,-8.69337 1.318862,0.0215 -2.29538,8.67559 z"
           style="fill:#ffffff;fill-opacity:1;stroke:none;stroke-width:0.115432px;stroke-linecap:butt;stroke-linejoin:miter;stroke-opacity:1" />
      </g>
    </g>
  </g>
</svg>
