<svg width="1920" height="977" viewBox="0 0 1920 977" fill="none" xmlns="http://www.w3.org/2000/svg">
<rect x="1714" y="154" width="206" height="31" fill="white"/>
<rect x="1660.33" y="91" width="103.572" height="31" transform="rotate(43.4835 1660.33 91)" fill="white"/>
<circle cx="1639" cy="91" r="44" fill="white"/>
<rect x="155" y="844" width="133" height="31" transform="rotate(90 155 844)" fill="white"/>
<rect x="218" y="790.332" width="103.572" height="31" transform="rotate(133.484 218 790.332)" fill="white"/>
<circle cx="218" cy="769" r="44" transform="rotate(90 218 769)" fill="white"/>
<rect x="55" y="31" width="55" height="31" transform="rotate(-180 55 31)" fill="white"/>
<rect x="108.667" y="94" width="103.572" height="31" transform="rotate(-136.516 108.667 94)" fill="white"/>
<circle cx="130" cy="94" r="44" transform="rotate(-180 130 94)" fill="white"/>
<rect width="101" height="31" transform="matrix(1 0 0 -1 1819 683)" fill="white"/>
<rect width="104.285" height="31.2373" transform="matrix(0.720608 -0.693343 -0.682918 -0.730495 1765.33 747.362)" fill="white"/>
<ellipse rx="44" ry="44.6377" transform="matrix(1 0 0 -1 1744 747.362)" fill="white"/>
<rect width="43" height="31" transform="matrix(1 0 0 -1 1877 453)" fill="white"/>
<ellipse rx="44" ry="44.6377" transform="matrix(1 0 0 -1 1846 436.638)" fill="white"/>
</svg>
