<svg viewBox="-72 1 511 511.99998" xmlns="http://www.w3.org/2000/svg"><path d="m.5 0h366.742188v512h-366.742188zm0 0" fill="#e04149"/><path d="m31.847656 31.347656h304.046875v304.046875h-304.046875zm0 0" fill="#eaeaea"/><path d="m291.210938 161.449219c0 13.464843-2.28125 26.40625-6.480469 38.445312-15.863281 45.433594-59.042969 78.058594-109.855469 78.175781v33.328126h-103.09375c13.082031-64.957032 34.425781-170.402344 36.378906-176.105469 7.039063-20.632813 22.253906-37.945313 42.722656-47.394531l4.769532-2.199219v75.75c0-15.792969 4.589844-30.871094 12.769531-43.660157 8.179687-12.78125 19.953125-23.269531 34.292969-29.890624l4.769531-2.199219v75.75zm0 0" fill="#b75129"/><path d="m291.210938 161.449219c0 13.46875-2.28125 26.402343-6.484376 38.441406l-.589843-.132813c-17.523438-3.933593-30.621094-19.589843-30.621094-38.300781v-.003906h37.695313zm0 0" fill="#353c44"/><path d="m206.757812 211.769531c-4.328124 0-7.835937-3.507812-7.835937-7.835937v-10.984375c0-4.328125 3.507813-7.835938 7.835937-7.835938 4.328126 0 7.835938 3.507813 7.835938 7.835938v10.984375c0 4.328125-3.507812 7.835937-7.835938 7.835937zm0 0" fill="#353c44"/><path d="m180.226562 211.769531c-4.328124 0-7.835937-3.507812-7.835937-7.835937v-10.984375c0-4.328125 3.507813-7.835938 7.835937-7.835938 4.328126 0 7.835938 3.507813 7.835938 7.835938v10.984375c.003906 4.328125-3.507812 7.835937-7.835938 7.835937zm0 0" fill="#353c44"/><g fill="#eaeaea"><path d="m310.304688 387.414062h-252.867188c-4.328125 0-7.835938-3.507812-7.835938-7.835937s3.507813-7.835937 7.835938-7.835937h252.867188c4.328124 0 7.835937 3.507812 7.835937 7.835937s-3.507813 7.835937-7.835937 7.835937zm0 0"/><path d="m310.304688 421.503906h-252.867188c-4.328125 0-7.835938-3.507812-7.835938-7.835937s3.507813-7.835938 7.835938-7.835938h252.867188c4.328124 0 7.835937 3.507813 7.835937 7.835938s-3.507813 7.835937-7.835937 7.835937zm0 0"/><path d="m310.304688 455.59375h-252.867188c-4.328125 0-7.835938-3.507812-7.835938-7.835938 0-4.328124 3.507813-7.835937 7.835938-7.835937h252.867188c4.328124 0 7.835937 3.507813 7.835937 7.835937 0 4.328126-3.507813 7.835938-7.835937 7.835938zm0 0"/></g></svg>