<svg width="50" height="51" viewBox="0 0 50 51" fill="none" xmlns="http://www.w3.org/2000/svg">
<path d="M25 0C11.195 0 3.85137e-05 11.476 3.85137e-05 25.633C-0.0379099 30.9632 1.58954 36.1722 4.65517 40.5327C7.7208 44.8933 12.0716 48.1877 17.1 49.956C18.349 50.193 18.808 49.4 18.808 48.723C18.808 48.112 18.785 46.093 18.774 43.951C11.819 45.502 10.351 40.927 10.351 40.927C9.21404 37.964 7.57504 37.176 7.57504 37.176C5.30704 35.585 7.74604 35.618 7.74604 35.618C8.5444 35.7357 9.30508 36.0351 9.96946 36.4931C10.6338 36.9512 11.1842 37.5557 11.578 38.26C13.808 42.179 17.426 41.046 18.853 40.391C18.9618 39.0971 19.5238 37.8831 20.44 36.963C14.887 36.315 9.05004 34.117 9.05004 24.295C9.01079 21.7589 9.93085 19.3016 11.626 17.415C10.8617 15.2024 10.948 12.7845 11.868 10.632C11.868 10.632 13.968 9.943 18.745 13.259C22.8392 12.109 27.1709 12.109 31.265 13.259C36.037 9.943 38.133 10.632 38.133 10.632C39.0552 12.7839 39.1426 15.2022 38.378 17.415C40.0739 19.3011 40.9931 21.759 40.951 24.295C40.951 34.14 35.103 36.308 29.536 36.943C30.1355 37.5714 30.5966 38.3186 30.8894 39.1362C31.1822 39.9539 31.3003 40.8239 31.236 41.69C31.236 45.12 31.207 47.88 31.207 48.724C31.207 49.406 31.657 50.205 32.924 49.954C37.9479 48.1822 42.2935 44.8864 45.3547 40.5266C48.4158 36.1667 50.0397 30.96 50 25.633C50 11.476 38.807 0 25 0ZM9.36304 36.515C9.31606 36.5814 9.24495 36.6267 9.16495 36.6413C9.08494 36.6559 9.00241 36.6385 8.93504 36.593C8.75404 36.509 8.65204 36.336 8.71104 36.208C8.77004 36.08 8.96104 36.04 9.14204 36.128C9.32304 36.216 9.42604 36.387 9.36304 36.515ZM10.593 37.64C10.474 37.753 10.241 37.701 10.083 37.522C10.0068 37.4581 9.95705 37.3682 9.94355 37.2696C9.93005 37.1711 9.95376 37.071 10.01 36.989C10.133 36.876 10.359 36.929 10.523 37.107C10.687 37.285 10.718 37.525 10.593 37.64ZM11.437 39.079C11.284 39.188 11.037 39.086 10.879 38.858C10.721 38.63 10.726 38.358 10.879 38.247C11.032 38.136 11.279 38.236 11.438 38.462C11.5141 38.5468 11.5562 38.6568 11.556 38.7707C11.5558 38.8846 11.5134 38.9945 11.437 39.079ZM12.864 40.746C12.727 40.901 12.435 40.859 12.221 40.646C12.1205 40.5738 12.0503 40.4668 12.024 40.3458C11.9978 40.2248 12.0174 40.0984 12.079 39.991C12.218 39.836 12.511 39.879 12.726 40.091C12.941 40.303 13.01 40.593 12.864 40.746ZM14.708 41.309C14.648 41.509 14.366 41.601 14.083 41.516C13.8 41.431 13.615 41.193 13.672 40.99C13.729 40.787 14.013 40.69 14.298 40.784C14.583 40.878 14.766 41.1 14.708 41.309ZM16.808 41.548C16.815 41.759 16.575 41.935 16.278 41.939C15.981 41.943 15.737 41.775 15.734 41.567C15.731 41.359 15.969 41.18 16.268 41.175C16.567 41.17 16.806 41.338 16.806 41.548H16.808ZM18.87 41.467C18.906 41.673 18.699 41.885 18.404 41.942C18.109 41.999 17.845 41.869 17.804 41.664C17.763 41.459 17.978 41.241 18.268 41.186C18.558 41.131 18.83 41.257 18.868 41.467H18.87Z" fill="#202020"/>
</svg> 
