<svg width="52" height="52" viewBox="0 0 52 52" fill="none" xmlns="http://www.w3.org/2000/svg">
<path d="M8.50002 8.50002C10.7 6.05731 13.4042 4.12156 16.4257 2.82662C19.4472 1.53168 22.714 0.908447 26 1.00002C29.2861 0.908447 32.5528 1.53168 35.5743 2.82662C38.5959 4.12156 41.3001 6.05731 43.5 8.50002C45.9427 10.7 47.8785 13.4042 49.1734 16.4257C50.4684 19.4472 51.0916 22.714 51 26C51.0916 29.2861 50.4684 32.5528 49.1734 35.5743C47.8785 38.5959 45.9427 41.3001 43.5 43.5C41.3001 45.9427 38.5959 47.8785 35.5743 49.1734C32.5528 50.4684 29.2861 51.0916 26 51C22.714 51.0916 19.4472 50.4684 16.4257 49.1734C13.4042 47.8785 10.7 45.9427 8.50002 43.5C3.91702 38.5 1.00002 33.083 1.00002 26C0.908447 22.714 1.53168 19.4472 2.82662 16.4257C4.12156 13.4042 6.05731 10.7 8.50002 8.50002ZM29.333 46C30.9997 46 33.083 44.75 35.583 42.25C37.25 39.333 38.5 36.417 38.5 33.5C38.508 32.5692 38.3276 31.6464 37.9697 30.7871C37.6117 29.9278 37.0835 29.1498 36.417 28.5C35.7396 27.7271 34.9074 27.1051 33.9742 26.6744C33.041 26.2437 32.0277 26.014 31 26H26.833C25.5468 25.9227 24.281 25.6415 23.083 25.167C22.6758 24.8003 22.3532 24.3496 22.1374 23.8459C21.9215 23.3423 21.8177 22.7978 21.833 22.25C21.839 21.9277 21.9169 21.6107 22.061 21.3223C22.2051 21.0339 22.4118 20.7813 22.666 20.583C23.1253 20.144 23.7062 19.8537 24.333 19.75C24.7512 19.7915 25.1549 19.9251 25.5153 20.1412C25.8756 20.3574 26.1836 20.6507 26.417 21C27.25 21.417 27.667 21.833 28.084 21.833C28.6715 21.8949 29.2619 21.7472 29.751 21.416C30.0822 20.9269 30.2299 20.3365 30.168 19.749C30.0005 18.1538 29.2605 16.6734 28.085 15.582C29.4052 13.1486 30.1196 10.433 30.168 7.66502C30.1525 7.44924 30.0597 7.24627 29.9067 7.0933C29.7538 6.94032 29.5508 6.84757 29.335 6.83202C28.2655 6.40695 27.1439 6.12712 26 6.00002C21.417 6.41702 18.083 7.25002 15.167 9.33302C13.9539 10.3492 12.9864 11.6266 12.337 13.0697C11.6876 14.5128 11.3731 16.0841 11.417 17.666C11.3935 19.1446 11.6777 20.6119 12.2515 21.9748C12.8252 23.3377 13.6761 24.5665 14.75 25.583C16.8525 27.6853 19.694 28.8816 22.667 28.916V30.583C22.6265 31.3569 22.7545 32.1303 23.0423 32.8498C23.3302 33.5693 23.7709 34.2177 24.334 34.75C25.2167 36.0339 26.5594 36.929 28.084 37.25V44.75C28.084 45.167 28.084 45.167 28.501 45.583C28.918 45.999 28.917 46 29.333 46Z" fill="#202020"/>
</svg>